<?xml version="1.0" encoding="iso-8859-1"?>
<!-- Generator: Adobe Illustrator 18.0.0, SVG Export Plug-In . SVG Version: 6.00 Build 0)  -->
<!DOCTYPE svg PUBLIC "-//W3C//DTD SVG 1.0//EN" "http://www.w3.org/TR/2001/REC-SVG-20010904/DTD/svg10.dtd">
<svg version="1.0" id="artwork" xmlns="http://www.w3.org/2000/svg" xmlns:xlink="http://www.w3.org/1999/xlink" x="0px" y="0px"
	 width="1400px" height="980px" viewBox="0 0 1400 980" style="enable-background:new 0 0 1400 980;" xml:space="preserve">
<style type="text/css">
	.st0{fill:#FFFFFF;}
	.st1{fill:#9AB5C6;}
	.st2{fill:#34698B;}
	.st3{fill:none;}
</style>
<g>
	<path class="st0" d="M187.17,217.76c-1.55,0-2.81-1.26-2.81-2.81v-17.98h-18.9c0.09,0.11,0.17,0.22,0.26,0.33
		c0.28,0.34,0.54,0.68,0.81,1.03c0.43,0.55,0.86,1.1,1.28,1.67c0.27,0.37,0.54,0.74,0.81,1.12c0.39,0.55,0.78,1.11,1.16,1.67
		c0.26,0.39,0.51,0.77,0.77,1.16c0.37,0.57,0.72,1.14,1.07,1.72c0.24,0.39,0.47,0.78,0.7,1.17c0.35,0.6,0.69,1.21,1.02,1.82
		c0.21,0.38,0.41,0.75,0.61,1.13c0.35,0.68,0.69,1.36,1.02,2.05c0.15,0.32,0.32,0.64,0.47,0.96c0.94,2.03,1.79,4.11,2.54,6.22
		c0.12,0.33,0.22,0.67,0.34,1c0.25,0.73,0.49,1.45,0.71,2.19c0.12,0.41,0.24,0.82,0.35,1.23c0.19,0.67,0.38,1.34,0.55,2.02
		c0.11,0.44,0.22,0.88,0.32,1.33c0.15,0.65,0.3,1.31,0.44,1.97c0.09,0.46,0.18,0.91,0.27,1.37c0.12,0.66,0.24,1.33,0.34,1.99
		c0.07,0.46,0.14,0.91,0.21,1.37c0.1,0.69,0.18,1.38,0.25,2.07c0.05,0.44,0.1,0.87,0.14,1.31c0.07,0.76,0.12,1.53,0.17,2.3
		c0.02,0.37,0.05,0.74,0.07,1.11c0.05,1.14,0.08,2.29,0.08,3.44c0,1.06-0.03,2.12-0.08,3.19c-0.01,0.32-0.04,0.64-0.05,0.96
		c-0.04,0.77-0.1,1.54-0.17,2.32c-0.03,0.33-0.06,0.67-0.09,1c-0.09,0.92-0.21,1.84-0.33,2.76c-0.02,0.15-0.04,0.29-0.06,0.44
		c0,0.03-0.01,0.06-0.01,0.09h90.55c0.07-0.21,0.15-0.42,0.22-0.63c0.17-0.49,0.34-0.97,0.52-1.45c0.2-0.54,0.4-1.09,0.6-1.63
		c0.18-0.48,0.37-0.96,0.56-1.44c0.21-0.53,0.42-1.06,0.64-1.59c0.2-0.48,0.4-0.96,0.61-1.43c0.23-0.52,0.45-1.04,0.69-1.56
		c0.21-0.47,0.43-0.94,0.65-1.41c0.24-0.51,0.48-1.02,0.73-1.53c0.23-0.47,0.45-0.93,0.69-1.39c0.25-0.5,0.51-1,0.77-1.5
		c0.24-0.46,0.48-0.92,0.73-1.37c0.27-0.49,0.54-0.98,0.81-1.47c0.25-0.45,0.51-0.9,0.77-1.35c0.28-0.49,0.57-0.97,0.86-1.45
		c0.27-0.44,0.53-0.89,0.8-1.33c0.3-0.48,0.6-0.95,0.9-1.42c0.28-0.43,0.55-0.87,0.84-1.3c0.31-0.47,0.62-0.93,0.94-1.39
		c0.29-0.43,0.58-0.85,0.87-1.27c0.32-0.46,0.65-0.91,0.98-1.36c0.3-0.42,0.6-0.83,0.91-1.24c0.34-0.45,0.68-0.9,1.03-1.34
		c0.31-0.4,0.62-0.81,0.93-1.2c0.35-0.45,0.72-0.88,1.08-1.33c0.32-0.39,0.63-0.78,0.95-1.17c0.37-0.45,0.76-0.88,1.14-1.32
		c0.32-0.37,0.63-0.74,0.96-1.1c0.41-0.46,0.83-0.91,1.25-1.37c0.31-0.33,0.61-0.67,0.92-1c0.54-0.57,1.08-1.12,1.63-1.68
		c0.41-0.42,0.82-0.83,1.24-1.24c0.54-0.54,1.09-1.07,1.64-1.6c0.34-0.32,0.69-0.63,1.03-0.95c0.44-0.41,0.88-0.82,1.33-1.22
		c0.36-0.32,0.74-0.64,1.11-0.96c0.44-0.38,0.88-0.77,1.32-1.14c0.38-0.32,0.77-0.63,1.16-0.95c0.44-0.36,0.88-0.72,1.33-1.08
		c0.4-0.32,0.8-0.62,1.21-0.93c0.45-0.34,0.89-0.69,1.34-1.03c0.41-0.3,0.82-0.6,1.24-0.9c0.46-0.33,0.91-0.66,1.37-0.99
		c0.42-0.3,0.85-0.58,1.27-0.87c0.46-0.31,0.92-0.63,1.39-0.94c0.43-0.28,0.87-0.56,1.3-0.84c0.47-0.3,0.94-0.6,1.42-0.9
		c0.44-0.27,0.88-0.54,1.33-0.8c0.48-0.29,0.96-0.58,1.45-0.86c0.45-0.26,0.9-0.51,1.35-0.77c0.49-0.27,0.98-0.55,1.47-0.81
		c0.46-0.25,0.91-0.49,1.37-0.73c0.5-0.26,1-0.52,1.51-0.77c0.46-0.23,0.93-0.46,1.39-0.69c0.51-0.25,1.02-0.49,1.53-0.73
		c0.47-0.22,0.94-0.43,1.41-0.65c0.52-0.23,1.04-0.46,1.56-0.69c0.47-0.2,0.95-0.41,1.43-0.6c0.53-0.22,1.06-0.43,1.59-0.65
		c0.48-0.19,0.96-0.38,1.44-0.56c0.54-0.21,1.08-0.4,1.62-0.6c0.48-0.18,0.97-0.35,1.46-0.52c0.21-0.07,0.42-0.15,0.63-0.22v-22.58
		h-79.79C251.6,195.13,221.18,217.76,187.17,217.76z"/>
	<path class="st1" d="M175.73,254.48c0.03-0.18,0.07-0.37,0.09-0.55c0.05-0.36,0.1-0.72,0.15-1.08c0.09-0.66,0.17-1.32,0.24-1.98
		c0.04-0.37,0.08-0.73,0.11-1.1c0.06-0.69,0.11-1.39,0.15-2.08c0.02-0.32,0.04-0.63,0.06-0.95c0.05-1,0.07-2.01,0.07-3.01
		c0-1.11-0.03-2.21-0.08-3.31c-0.02-0.37-0.06-0.74-0.08-1.11c-0.05-0.72-0.09-1.45-0.16-2.17c-0.04-0.43-0.1-0.86-0.15-1.29
		c-0.08-0.65-0.14-1.31-0.24-1.96c-0.07-0.45-0.15-0.9-0.23-1.35c-0.1-0.62-0.2-1.24-0.32-1.86c-0.09-0.46-0.2-0.92-0.3-1.38
		c-0.13-0.6-0.25-1.2-0.4-1.79c-0.11-0.47-0.25-0.93-0.37-1.39c-0.16-0.58-0.3-1.16-0.47-1.74c-0.14-0.47-0.29-0.93-0.44-1.39
		c-0.18-0.56-0.36-1.13-0.55-1.69c-0.16-0.46-0.34-0.92-0.51-1.38c-0.21-0.55-0.41-1.1-0.63-1.65c-0.19-0.46-0.39-0.91-0.58-1.36
		c-0.23-0.54-0.46-1.07-0.7-1.6c-0.21-0.45-0.43-0.9-0.65-1.34c-0.25-0.52-0.51-1.04-0.77-1.56c-0.23-0.45-0.48-0.88-0.72-1.33
		c-0.28-0.5-0.55-1.01-0.84-1.51c-0.26-0.44-0.53-0.87-0.79-1.3c-0.3-0.49-0.6-0.98-0.91-1.46c-0.28-0.43-0.57-0.85-0.86-1.28
		c-0.32-0.47-0.64-0.94-0.98-1.41c-0.3-0.42-0.62-0.84-0.94-1.25c-0.34-0.45-0.68-0.91-1.04-1.35c-0.33-0.41-0.67-0.82-1.01-1.22
		c-0.36-0.43-0.73-0.87-1.1-1.3c-0.35-0.4-0.72-0.8-1.08-1.19c-0.25-0.28-0.51-0.55-0.77-0.82h-4.28c-21.78,0-39.5,17.72-39.5,39.5
		v18.01H175.73z"/>
	<path class="st1" d="M339.82,191.74c-0.38,0.14-0.75,0.28-1.13,0.42c-0.64,0.25-1.27,0.51-1.9,0.77c-0.31,0.13-0.62,0.25-0.93,0.38
		c-0.93,0.39-1.85,0.8-2.77,1.22c-0.11,0.05-0.22,0.1-0.33,0.15c-0.81,0.37-1.61,0.75-2.41,1.15c-0.32,0.16-0.64,0.33-0.97,0.49
		c-0.58,0.29-1.15,0.58-1.72,0.89c-0.37,0.2-0.73,0.4-1.1,0.6c-0.52,0.28-1.03,0.56-1.54,0.85c-0.38,0.22-0.76,0.44-1.14,0.67
		c-0.49,0.28-0.97,0.57-1.45,0.86c-0.39,0.24-0.77,0.48-1.16,0.72c-0.47,0.29-0.93,0.58-1.39,0.88c-0.39,0.25-0.77,0.5-1.15,0.76
		c-0.45,0.3-0.9,0.61-1.35,0.91c-0.38,0.26-0.76,0.52-1.13,0.79c-0.44,0.31-0.88,0.63-1.32,0.95c-0.37,0.27-0.74,0.54-1.11,0.82
		c-0.43,0.32-0.86,0.66-1.29,0.99c-0.36,0.28-0.73,0.56-1.09,0.85c-0.43,0.34-0.85,0.69-1.27,1.04c-0.35,0.29-0.7,0.57-1.04,0.86
		c-0.43,0.36-0.85,0.73-1.28,1.1c-0.33,0.29-0.66,0.57-0.98,0.86c-0.45,0.4-0.89,0.81-1.33,1.22c-0.29,0.27-0.59,0.53-0.87,0.81
		c-0.59,0.56-1.18,1.13-1.75,1.7c-0.25,0.25-0.5,0.49-0.74,0.74c-0.57,0.58-1.14,1.16-1.7,1.75c-0.27,0.29-0.54,0.59-0.81,0.88
		c-0.41,0.44-0.81,0.88-1.21,1.32c-0.29,0.33-0.58,0.66-0.87,0.99c-0.37,0.42-0.73,0.84-1.09,1.27c-0.29,0.35-0.58,0.7-0.87,1.05
		c-0.35,0.42-0.69,0.84-1.03,1.27c-0.29,0.36-0.57,0.72-0.85,1.09c-0.33,0.43-0.66,0.85-0.98,1.28c-0.28,0.37-0.55,0.75-0.83,1.12
		c-0.32,0.43-0.63,0.87-0.94,1.31c-0.27,0.38-0.53,0.76-0.8,1.14c-0.31,0.44-0.61,0.89-0.91,1.34c-0.26,0.39-0.51,0.77-0.76,1.16
		c-0.3,0.46-0.59,0.92-0.87,1.38c-0.24,0.39-0.49,0.78-0.72,1.17c-0.29,0.48-0.57,0.96-0.85,1.44c-0.23,0.39-0.45,0.77-0.67,1.16
		c-0.29,0.5-0.56,1.01-0.84,1.52c-0.2,0.37-0.41,0.74-0.61,1.12c-0.3,0.56-0.58,1.13-0.87,1.69c-0.17,0.33-0.34,0.66-0.51,0.99
		c-0.38,0.77-0.75,1.56-1.12,2.34c-0.06,0.13-0.13,0.26-0.19,0.39c-0.42,0.91-0.82,1.84-1.22,2.76c-0.13,0.31-0.26,0.63-0.39,0.95
		c-0.26,0.62-0.52,1.25-0.76,1.88c-0.15,0.37-0.28,0.75-0.42,1.13c-0.17,0.46-0.35,0.92-0.51,1.39h63.25v-63.25
		C340.75,191.39,340.29,191.56,339.82,191.74z"/>
	<polygon class="st0" points="274.94,118.19 263.14,157.04 348.79,157.04 348.79,118.19 341.22,118.19 	"/>
	<path class="st2" d="M351.6,112.56h-7.57h-71.17h-22.22c-1.25,0-2.35,0.83-2.7,2.03l-9.31,31.96l-1.22,4.18c0,0,0,0,0,0l-1.09,3.76
		c-0.28,0.98-0.61,1.94-0.95,2.89c-0.11,0.3-0.21,0.6-0.33,0.9c-0.32,0.85-0.66,1.69-1.03,2.52c-0.12,0.28-0.25,0.56-0.38,0.84
		c-0.33,0.72-0.68,1.43-1.05,2.13c-0.25,0.49-0.52,0.97-0.79,1.44c-0.23,0.41-0.46,0.81-0.7,1.21
		c-9.1,15.13-25.72,24.94-43.91,24.94h-28.03h-5.5c-24.88,0-45.13,20.24-45.13,45.13v20.82v32.92c0,1.55,1.26,2.81,2.81,2.81h21.15
		c1.55,0,2.81-1.26,2.81-2.81v-8.23h15.53v8.23c0,1.55,1.26,2.81,2.81,2.81h21.15c1.55,0,2.81-1.26,2.81-2.81v-8.23h15.53v8.23
		c0,1.55,1.26,2.81,2.81,2.81h21.15c1.55,0,2.81-1.26,2.81-2.81v-8.23h15.53v8.23c0,1.55,1.26,2.81,2.81,2.81h21.15
		c1.55,0,2.81-1.26,2.81-2.81v-8.23h15.53v8.23c0,1.55,1.26,2.81,2.81,2.81h21.16c1.55,0,2.81-1.26,2.81-2.81v-8.23h15.53v8.23
		c0,1.55,1.26,2.81,2.81,2.81h21.15c1.55,0,2.81-1.26,2.81-2.81v-32.92v-70.01v-24.62h4.76c1.55,0,2.81-1.26,2.81-2.81v-44.48
		C354.42,113.82,353.16,112.56,351.6,112.56z M259.97,137.54c1.55,0,2.81-1.26,2.81-2.81c0-1.55-1.26-2.81-2.81-2.81h-11.23l4-13.73
		h16.32l-12.79,42.11c-8.63,29.62-35.64,50.57-66.28,51.78V196.9c4.35-0.21,8.65-0.93,12.84-2.13l2.24,8.31
		c0.4,1.5,1.95,2.39,3.45,1.98c1.26-0.34,2.08-1.48,2.08-2.72c0-0.24-0.03-0.49-0.1-0.73l-2.34-8.66c3.65-1.45,7.13-3.27,10.4-5.44
		l4.53,8.75c0.72,1.38,2.41,1.92,3.79,1.2c0.97-0.5,1.52-1.48,1.52-2.5c0-0.44-0.1-0.88-0.32-1.29l-4.95-9.55
		c3.8-3.11,7.16-6.67,10.03-10.65l5.57,6.31c1.03,1.17,2.81,1.28,3.97,0.25c0.63-0.56,0.95-1.33,0.95-2.11
		c0-0.66-0.23-1.33-0.7-1.86l-6.61-7.5c2.28-3.95,4.08-8.15,5.35-12.52l0.2-0.7l9.5,4.12c1.43,0.62,3.08-0.04,3.7-1.46
		c0.16-0.36,0.23-0.74,0.23-1.12c0-1.09-0.63-2.12-1.7-2.58l-10.15-4.4l3.61-12.37H259.97z M277.96,254.48
		c0.17-0.47,0.34-0.93,0.51-1.39c0.14-0.38,0.28-0.75,0.42-1.13c0.25-0.63,0.5-1.25,0.76-1.88c0.13-0.31,0.25-0.63,0.39-0.95
		c0.39-0.93,0.8-1.85,1.22-2.76c0.06-0.13,0.13-0.26,0.19-0.39c0.36-0.78,0.73-1.57,1.12-2.34c0.16-0.33,0.34-0.66,0.51-0.99
		c0.29-0.57,0.57-1.13,0.87-1.69c0.2-0.38,0.41-0.75,0.61-1.12c0.28-0.51,0.56-1.02,0.84-1.52c0.22-0.39,0.45-0.77,0.67-1.16
		c0.28-0.48,0.56-0.96,0.85-1.44c0.24-0.39,0.48-0.78,0.72-1.17c0.29-0.46,0.58-0.92,0.87-1.38c0.25-0.39,0.51-0.78,0.76-1.16
		c0.3-0.45,0.6-0.9,0.91-1.34c0.26-0.38,0.53-0.76,0.8-1.14c0.31-0.44,0.63-0.88,0.94-1.31c0.27-0.37,0.55-0.75,0.83-1.12
		c0.32-0.43,0.65-0.86,0.98-1.28c0.28-0.36,0.56-0.73,0.85-1.09c0.34-0.43,0.69-0.85,1.03-1.27c0.29-0.35,0.57-0.7,0.87-1.05
		c0.36-0.43,0.73-0.85,1.09-1.27c0.29-0.33,0.57-0.66,0.87-0.99c0.4-0.45,0.81-0.88,1.21-1.32c0.27-0.29,0.54-0.59,0.81-0.88
		c0.56-0.59,1.13-1.17,1.7-1.75c0.25-0.25,0.49-0.5,0.74-0.74c0.58-0.57,1.16-1.14,1.75-1.7c0.29-0.27,0.58-0.54,0.87-0.81
		c0.44-0.41,0.88-0.82,1.33-1.22c0.32-0.29,0.66-0.57,0.98-0.86c0.42-0.37,0.85-0.74,1.28-1.1c0.35-0.29,0.7-0.58,1.04-0.86
		c0.42-0.35,0.85-0.7,1.27-1.04c0.36-0.29,0.72-0.57,1.09-0.85c0.43-0.33,0.86-0.66,1.29-0.99c0.37-0.28,0.74-0.55,1.11-0.82
		c0.44-0.32,0.88-0.64,1.32-0.95c0.38-0.27,0.75-0.53,1.13-0.79c0.45-0.31,0.9-0.61,1.35-0.91c0.38-0.25,0.76-0.51,1.15-0.76
		c0.46-0.3,0.93-0.59,1.39-0.88c0.38-0.24,0.77-0.48,1.16-0.72c0.48-0.29,0.97-0.58,1.45-0.86c0.38-0.22,0.76-0.45,1.14-0.67
		c0.51-0.29,1.03-0.57,1.54-0.85c0.37-0.2,0.73-0.4,1.1-0.6c0.57-0.3,1.15-0.59,1.72-0.89c0.32-0.16,0.64-0.33,0.97-0.49
		c0.8-0.39,1.6-0.77,2.41-1.15c0.11-0.05,0.22-0.1,0.33-0.15c0.92-0.42,1.84-0.83,2.77-1.22c0.31-0.13,0.62-0.25,0.93-0.38
		c0.63-0.26,1.26-0.52,1.9-0.77c0.37-0.15,0.75-0.28,1.13-0.42c0.46-0.17,0.92-0.35,1.39-0.52v63.25H277.96z M341.22,185.25
		c-0.21,0.07-0.42,0.15-0.63,0.22c-0.49,0.17-0.97,0.34-1.46,0.52c-0.54,0.2-1.08,0.4-1.62,0.6c-0.48,0.18-0.96,0.37-1.44,0.56
		c-0.53,0.21-1.06,0.43-1.59,0.65c-0.48,0.2-0.95,0.4-1.43,0.6c-0.52,0.23-1.04,0.46-1.56,0.69c-0.47,0.21-0.94,0.43-1.41,0.65
		c-0.51,0.24-1.02,0.48-1.53,0.73c-0.47,0.23-0.93,0.45-1.39,0.69c-0.5,0.25-1.01,0.51-1.51,0.77c-0.46,0.24-0.92,0.48-1.37,0.73
		c-0.49,0.27-0.98,0.54-1.47,0.81c-0.45,0.25-0.9,0.51-1.35,0.77c-0.49,0.28-0.97,0.57-1.45,0.86c-0.44,0.27-0.89,0.53-1.33,0.8
		c-0.48,0.29-0.95,0.6-1.42,0.9c-0.44,0.28-0.87,0.56-1.3,0.84c-0.47,0.31-0.93,0.62-1.39,0.94c-0.43,0.29-0.85,0.58-1.27,0.87
		c-0.46,0.32-0.91,0.66-1.37,0.99c-0.41,0.3-0.83,0.6-1.24,0.9c-0.45,0.34-0.9,0.68-1.34,1.03c-0.4,0.31-0.81,0.62-1.21,0.93
		c-0.45,0.35-0.88,0.72-1.33,1.08c-0.39,0.32-0.78,0.63-1.16,0.95c-0.45,0.38-0.88,0.76-1.32,1.14c-0.37,0.32-0.74,0.63-1.11,0.96
		c-0.45,0.4-0.89,0.81-1.33,1.22c-0.34,0.32-0.69,0.63-1.03,0.95c-0.56,0.52-1.1,1.06-1.64,1.6c-0.42,0.41-0.83,0.82-1.24,1.24
		c-0.55,0.56-1.1,1.11-1.63,1.68c-0.31,0.33-0.61,0.66-0.92,1c-0.42,0.46-0.84,0.91-1.25,1.37c-0.32,0.36-0.64,0.74-0.96,1.1
		c-0.38,0.44-0.77,0.88-1.14,1.32c-0.32,0.38-0.64,0.78-0.95,1.17c-0.36,0.44-0.72,0.88-1.08,1.33c-0.32,0.4-0.62,0.8-0.93,1.2
		c-0.34,0.45-0.69,0.89-1.03,1.34c-0.31,0.41-0.61,0.83-0.91,1.24c-0.33,0.45-0.66,0.9-0.98,1.36c-0.3,0.42-0.58,0.85-0.87,1.27
		c-0.32,0.46-0.63,0.92-0.94,1.39c-0.28,0.43-0.56,0.86-0.84,1.3c-0.3,0.47-0.6,0.94-0.9,1.42c-0.27,0.44-0.54,0.88-0.8,1.33
		c-0.29,0.48-0.58,0.96-0.86,1.45c-0.26,0.45-0.51,0.9-0.77,1.35c-0.27,0.49-0.55,0.98-0.81,1.47c-0.25,0.46-0.49,0.91-0.73,1.37
		c-0.26,0.5-0.52,1-0.77,1.5c-0.23,0.46-0.46,0.93-0.69,1.39c-0.25,0.51-0.49,1.02-0.73,1.53c-0.22,0.47-0.43,0.94-0.65,1.41
		c-0.23,0.52-0.46,1.04-0.69,1.56c-0.21,0.48-0.41,0.95-0.61,1.43c-0.22,0.53-0.43,1.06-0.64,1.59c-0.19,0.48-0.38,0.96-0.56,1.44
		c-0.21,0.54-0.4,1.08-0.6,1.63c-0.18,0.48-0.35,0.97-0.52,1.45c-0.07,0.21-0.15,0.42-0.22,0.63h-90.55c0-0.03,0.01-0.06,0.01-0.09
		c0.02-0.15,0.04-0.29,0.06-0.44c0.13-0.92,0.24-1.84,0.33-2.76c0.03-0.33,0.06-0.67,0.09-1c0.07-0.77,0.12-1.54,0.17-2.32
		c0.02-0.32,0.04-0.64,0.05-0.96c0.05-1.06,0.08-2.13,0.08-3.19c0-1.15-0.03-2.29-0.08-3.44c-0.02-0.37-0.05-0.74-0.07-1.11
		c-0.05-0.77-0.1-1.53-0.17-2.3c-0.04-0.44-0.09-0.88-0.14-1.31c-0.08-0.69-0.16-1.38-0.25-2.07c-0.06-0.46-0.14-0.91-0.21-1.37
		c-0.11-0.67-0.22-1.33-0.34-1.99c-0.09-0.46-0.18-0.92-0.27-1.37c-0.14-0.66-0.28-1.32-0.44-1.97c-0.1-0.44-0.21-0.89-0.32-1.33
		c-0.17-0.68-0.36-1.35-0.55-2.02c-0.12-0.41-0.23-0.82-0.35-1.23c-0.22-0.73-0.47-1.46-0.71-2.19c-0.11-0.33-0.22-0.67-0.34-1
		c-0.75-2.11-1.6-4.18-2.54-6.22c-0.15-0.32-0.31-0.64-0.47-0.96c-0.33-0.69-0.67-1.37-1.02-2.05c-0.2-0.38-0.41-0.75-0.61-1.13
		c-0.33-0.61-0.67-1.22-1.02-1.82c-0.23-0.39-0.47-0.78-0.7-1.17c-0.35-0.58-0.71-1.15-1.07-1.72c-0.25-0.39-0.51-0.78-0.77-1.16
		c-0.38-0.56-0.76-1.12-1.16-1.67c-0.27-0.37-0.53-0.75-0.81-1.12c-0.42-0.56-0.85-1.11-1.28-1.67c-0.27-0.34-0.54-0.69-0.81-1.03
		c-0.09-0.11-0.17-0.22-0.26-0.33h18.9v17.98c0,1.55,1.26,2.81,2.81,2.81c34.01,0,64.42-22.63,74.25-55.1h79.79V185.25z
		 M114.14,236.47c0-21.78,17.72-39.5,39.5-39.5h4.28c0.26,0.27,0.52,0.55,0.77,0.82c0.36,0.4,0.73,0.79,1.08,1.19
		c0.37,0.43,0.74,0.86,1.1,1.3c0.34,0.41,0.68,0.81,1.01,1.22c0.35,0.45,0.7,0.9,1.04,1.35c0.31,0.42,0.63,0.83,0.94,1.25
		c0.33,0.46,0.66,0.94,0.98,1.41c0.29,0.42,0.58,0.85,0.86,1.28c0.31,0.48,0.61,0.97,0.91,1.46c0.27,0.43,0.54,0.86,0.79,1.3
		c0.29,0.5,0.57,1,0.84,1.51c0.24,0.44,0.49,0.88,0.72,1.33c0.27,0.51,0.52,1.04,0.77,1.56c0.22,0.45,0.44,0.89,0.65,1.34
		c0.24,0.53,0.47,1.07,0.7,1.6c0.2,0.45,0.4,0.91,0.58,1.36c0.22,0.55,0.42,1.1,0.63,1.65c0.17,0.46,0.35,0.91,0.51,1.38
		c0.2,0.56,0.37,1.13,0.55,1.69c0.15,0.46,0.3,0.92,0.44,1.39c0.17,0.58,0.32,1.16,0.47,1.74c0.12,0.46,0.26,0.92,0.37,1.39
		c0.15,0.59,0.27,1.19,0.4,1.79c0.1,0.46,0.21,0.92,0.3,1.38c0.12,0.62,0.22,1.24,0.32,1.86c0.07,0.45,0.16,0.9,0.23,1.35
		c0.09,0.65,0.16,1.31,0.24,1.96c0.05,0.43,0.11,0.86,0.15,1.29c0.07,0.72,0.11,1.44,0.16,2.17c0.02,0.37,0.06,0.74,0.08,1.11
		c0.05,1.1,0.08,2.2,0.08,3.31c0,1-0.03,2-0.07,3.01c-0.01,0.32-0.04,0.63-0.06,0.95c-0.04,0.69-0.09,1.39-0.15,2.08
		c-0.03,0.37-0.07,0.73-0.11,1.1c-0.07,0.66-0.15,1.32-0.24,1.98c-0.05,0.36-0.1,0.72-0.15,1.08c-0.03,0.18-0.06,0.37-0.09,0.55
		h-61.59V236.47z M341.22,287.39h-15.53v-8.23c0-1.55-1.26-2.81-2.81-2.81h-21.15c-1.55,0-2.81,1.26-2.81,2.81v8.23h-15.53v-8.23
		c0-1.55-1.26-2.81-2.81-2.81h-21.15c-1.55,0-2.81,1.26-2.81,2.81v8.23h-15.53v-8.23c0-1.55-1.26-2.81-2.81-2.81H217.1
		c-1.55,0-2.81,1.26-2.81,2.81v8.23h-15.53v-8.23c0-1.55-1.26-2.81-2.81-2.81h-21.16c-1.55,0-2.81,1.26-2.81,2.81v8.23h-15.53v-8.23
		c0-1.55-1.26-2.81-2.81-2.81h-21.15c-1.55,0-2.81,1.26-2.81,2.81v8.23h-15.53V260.1h63.97h95.92h67.19V287.39z M348.79,157.04
		h-85.65l11.8-38.85h66.27h7.57V157.04z"/>
	<path class="st1" d="M178.11,260.1h-63.97v27.29h15.53v-8.23c0-1.55,1.26-2.81,2.81-2.81h21.15c1.55,0,2.81,1.26,2.81,2.81v8.23
		h15.53v-8.23c0-1.55,1.26-2.81,2.81-2.81h21.16c1.55,0,2.81,1.26,2.81,2.81v8.23h15.53v-8.23c0-1.55,1.26-2.81,2.81-2.81h21.15
		c1.55,0,2.81,1.26,2.81,2.81v8.23h15.53v-8.23c0-1.55,1.26-2.81,2.81-2.81h21.15c1.55,0,2.81,1.26,2.81,2.81v8.23h15.53v-8.23
		c0-1.55,1.26-2.81,2.81-2.81h21.15c1.55,0,2.81,1.26,2.81,2.81v8.23h15.53V260.1h-67.19H178.11z"/>
	<path class="st1" d="M243.5,149.91l10.15,4.4c1.06,0.46,1.7,1.49,1.7,2.58c0,0.37-0.07,0.75-0.23,1.12
		c-0.62,1.43-2.27,2.08-3.7,1.46l-9.5-4.12l-0.2,0.7c-1.27,4.37-3.07,8.57-5.35,12.52l6.61,7.5c0.47,0.54,0.7,1.2,0.7,1.86
		c0,0.78-0.32,1.56-0.95,2.11c-1.16,1.03-2.94,0.92-3.97-0.25l-5.57-6.31c-2.87,3.97-6.23,7.54-10.03,10.65l4.95,9.55
		c0.21,0.41,0.32,0.86,0.32,1.29c0,1.02-0.55,2-1.52,2.5c-1.38,0.71-3.08,0.18-3.79-1.2l-4.53-8.75c-3.27,2.17-6.75,3.99-10.4,5.44
		l2.34,8.66c0.07,0.24,0.1,0.49,0.1,0.73c0,1.24-0.83,2.38-2.08,2.72c-1.5,0.41-3.04-0.48-3.45-1.98l-2.24-8.31
		c-4.19,1.2-8.49,1.92-12.84,2.13v15.18c30.64-1.21,57.65-22.16,66.28-51.78l12.79-42.11h-16.32l-4,13.73h11.23
		c1.55,0,2.81,1.26,2.81,2.81c0,1.55-1.26,2.81-2.81,2.81h-12.87L243.5,149.91z"/>
</g>
<g>
	<path class="st0" d="M427.04,234.96l7.42,2.29l7.85-32.66c0.1-0.42,0.22-0.83,0.34-1.24l-8.32,1.27L427.04,234.96z"/>
	<path class="st0" d="M653.32,204.62l-8.32-1.27c0.12,0.41,0.24,0.82,0.34,1.24l7.85,32.66l7.42-2.29L653.32,204.62z"/>
	<path class="st2" d="M666.7,236.21l-8.35-34.74c-0.27-1.11-1.18-1.95-2.31-2.12l-14-2.13c-2.79-4.08-6.9-7.21-11.71-8.73
		c-17.14-5.42-51.17-14.52-86.5-14.52c-35.33,0-69.36,9.1-86.5,14.52c-4.82,1.52-8.92,4.66-11.71,8.73l-14,2.13
		c-1.13,0.17-2.05,1.01-2.31,2.12l-8.35,34.74c-0.35,1.44,0.49,2.91,1.9,3.35l10.46,3.23c-2.18,15.96,6.89,31.74,22.17,37.68
		l27.61,10.73c3.11,1.21,6.37,1.82,9.7,1.82c7.65,0,14.96-3.28,20.04-9l21.3-23.98c2.46-2.77,5.99-4.35,9.69-4.35
		s7.23,1.59,9.69,4.35l21.31,23.98c5.08,5.72,12.38,9,20.04,9c3.33,0,6.59-0.61,9.7-1.82l27.61-10.73
		c15.27-5.94,24.35-21.72,22.16-37.68l10.46-3.23C666.22,239.12,667.05,237.65,666.7,236.21z M630.14,275.22l-27.61,10.73
		c-2.46,0.95-5.03,1.44-7.66,1.44c-6.05,0-11.81-2.59-15.83-7.11l-21.31-23.98c-3.53-3.97-8.59-6.24-13.9-6.24
		c-5.31,0-10.37,2.28-13.9,6.24l-21.31,23.98c-4.01,4.52-9.78,7.11-15.83,7.11c-2.63,0-5.21-0.48-7.66-1.44l-27.61-10.73
		c-13.76-5.35-21.54-20.21-18.09-34.57l8.35-34.74c1.37-5.68,5.67-10.31,11.24-12.07c16.83-5.33,50.23-14.26,84.8-14.26
		c34.58,0,67.97,8.93,84.8,14.26c5.57,1.76,9.87,6.39,11.24,12.07l8.35,34.74C651.68,255.01,643.9,269.87,630.14,275.22z
		 M442.31,204.59l-7.85,32.66l-7.42-2.29l7.29-30.34l8.32-1.27C442.53,203.76,442.41,204.17,442.31,204.59z M653.19,237.25
		l-7.85-32.66c-0.1-0.42-0.22-0.83-0.34-1.24l8.32,1.27l7.29,30.34L653.19,237.25z"/>
	<path class="st0" d="M648.22,240.65l-8.35-34.74c-1.37-5.68-5.67-10.31-11.24-12.07c-16.83-5.33-50.23-14.26-84.8-14.26
		c-34.58,0-67.97,8.93-84.8,14.26c-5.57,1.76-9.87,6.39-11.24,12.07l-8.35,34.74c-3.45,14.36,4.32,29.22,18.09,34.57l27.61,10.73
		c2.46,0.95,5.03,1.44,7.66,1.44c6.05,0,11.82-2.59,15.83-7.11l21.31-23.98c3.53-3.97,8.59-6.24,13.9-6.24
		c5.31,0,10.37,2.28,13.9,6.24l21.31,23.98c4.01,4.52,9.78,7.11,15.83,7.11c2.63,0,5.21-0.48,7.66-1.44l27.61-10.73
		C643.9,269.87,651.68,255.01,648.22,240.65z M627.33,268l-27.61,10.73c-1.56,0.61-3.19,0.91-4.86,0.91h0
		c-3.83,0-7.49-1.64-10.03-4.51l-21.31-23.98c-4.99-5.62-12.17-8.85-19.69-8.85c-7.52,0-14.7,3.22-19.69,8.85l-21.3,23.98
		c-2.54,2.86-6.2,4.51-10.04,4.51c-1.66,0-3.3-0.31-4.86-0.91L460.33,268c-10.17-3.95-15.91-14.93-13.36-25.53l8.35-34.74
		c0.73-3.06,3.05-5.54,6.04-6.49c16.4-5.19,48.92-13.9,82.46-13.9c33.55,0,66.07,8.71,82.47,13.9c2.99,0.95,5.31,3.43,6.04,6.49
		l8.35,34.74C643.24,253.07,637.49,264.04,627.33,268z"/>
	<path class="st1" d="M626.86,209.04c-0.28-1.15-1.14-2.08-2.27-2.44c-16.09-5.09-47.98-13.64-80.77-13.64
		c-32.79,0-64.68,8.54-80.77,13.64c-1.12,0.36-1.99,1.29-2.27,2.44l-8.35,34.74c-1.89,7.88,2.37,16.04,9.93,18.97l27.61,10.73
		c2.99,1.16,6.53,0.3,8.64-2.09l21.3-23.98c6.06-6.82,14.77-10.74,23.9-10.74c9.13,0,17.84,3.91,23.9,10.74l21.31,23.98
		c2.12,2.38,5.65,3.25,8.64,2.09l27.61-10.73c7.55-2.94,11.82-11.09,9.93-18.97L626.86,209.04z"/>
	<path class="st2" d="M640.69,242.46l-8.35-34.74c-0.73-3.06-3.05-5.54-6.04-6.49c-16.4-5.19-48.92-13.9-82.47-13.9
		c-33.55,0-66.07,8.71-82.46,13.9c-2.99,0.95-5.31,3.43-6.04,6.49l-8.35,34.74c-2.55,10.6,3.19,21.58,13.36,25.53l27.61,10.73
		c1.56,0.61,3.19,0.91,4.86,0.91c3.83,0,7.49-1.64,10.04-4.51l21.3-23.98c5-5.62,12.17-8.85,19.69-8.85c7.52,0,14.7,3.22,19.69,8.85
		l21.31,23.98c2.54,2.86,6.2,4.51,10.03,4.51h0c1.66,0,3.3-0.31,4.86-0.91L627.33,268C637.49,264.04,643.24,253.07,640.69,242.46z
		 M625.29,262.75l-27.61,10.73c-2.99,1.16-6.53,0.3-8.64-2.09l-21.31-23.98c-6.06-6.82-14.77-10.74-23.9-10.74
		c-9.13,0-17.84,3.91-23.9,10.74l-21.3,23.98c-2.12,2.38-5.65,3.25-8.64,2.09l-27.61-10.73c-7.55-2.94-11.82-11.09-9.93-18.97
		l8.35-34.74c0.28-1.15,1.15-2.08,2.27-2.44c16.09-5.09,47.97-13.64,80.77-13.64c32.79,0,64.68,8.54,80.77,13.64
		c1.12,0.35,1.99,1.29,2.27,2.44l8.35,34.74C637.11,251.66,632.84,259.81,625.29,262.75z"/>
</g>
<g>
	<path class="st1" d="M786.16,133.9l-10.4-10.4c-15.6,20.09-26.95,42.99-33.46,67.65C755.37,170.96,770.05,151.8,786.16,133.9z"/>
	<path class="st1" d="M809.62,89.64l10.4,10.4c17.9-16.12,37.06-30.79,57.24-43.86C852.61,62.69,829.71,74.04,809.62,89.64z"/>
	
		<rect x="779.17" y="193.75" transform="matrix(-0.7071 -0.7071 0.7071 -0.7071 1373.8481 974.1857)" class="st0" width="219.03" height="17.61"/>
	
		<rect x="778.3" y="86.67" transform="matrix(-0.7071 -0.7071 0.7071 -0.7071 1266.764 715.667)" class="st0" width="6.59" height="17.61"/>
	<path class="st2" d="M978.32,271.78L821.45,114.91l4.73-4.73c0.53-0.53,0.82-1.24,0.82-1.99c0-0.75-0.3-1.46-0.82-1.99l-2.17-2.17
		c21.64-19.45,45.12-36.79,70.07-51.69c1.17-0.7,1.67-2.12,1.19-3.4c-0.47-1.27-1.79-2.02-3.12-1.79
		c-31.86,5.59-61.37,18.77-86.55,38.47l-2.75-2.75c-1.1-1.1-2.88-1.1-3.98,0l-4.73,4.73l-6.65-6.65c-1.1-1.1-2.88-1.1-3.98,0
		l-16.43,16.43c-0.53,0.53-0.82,1.24-0.82,1.99c0,0.75,0.3,1.46,0.82,1.99l6.65,6.65l-4.73,4.73c-1.1,1.1-1.1,2.88,0,3.98l2.75,2.75
		c-19.7,25.18-32.88,54.69-38.47,86.55c-0.24,1.34,0.52,2.65,1.79,3.12c0.32,0.12,0.65,0.18,0.98,0.18c0.97,0,1.9-0.5,2.42-1.37
		c14.9-24.94,32.24-48.42,51.69-70.07l2.17,2.17c0.53,0.53,1.24,0.82,1.99,0.82s1.46-0.3,1.99-0.82l4.73-4.73L957.91,292.2
		c0.55,0.55,1.27,0.82,1.99,0.82s1.44-0.27,1.99-0.82l16.43-16.43c0.53-0.53,0.82-1.24,0.82-1.99S978.85,272.31,978.32,271.78z
		 M959.9,286.23L805.02,131.35l12.45-12.45l154.88,154.88L959.9,286.23z M786.16,133.9c-16.12,17.9-30.79,37.06-43.86,57.25
		c6.51-24.66,17.86-47.56,33.46-67.65L786.16,133.9z M774.96,114.74l25.9-25.9l19.35,19.35l-25.9,25.9L774.96,114.74z
		 M777.71,104.04l-4.66-4.66l12.46-12.45l4.66,4.66L777.71,104.04z M809.62,89.64c20.09-15.6,42.99-26.95,67.65-33.46
		c-20.19,13.07-39.34,27.75-57.24,43.86L809.62,89.64z"/>
	
		<rect x="779.27" y="97.78" transform="matrix(-0.7071 0.7071 -0.7071 -0.7071 1440.397 -373.6833)" class="st0" width="36.63" height="27.37"/>
</g>
<g>
	<path class="st3" d="M1188.7,228.7l12.84,17.88c1.16,1.61,2.45,3.11,3.84,4.47c6.03,5.89,14.04,9.28,22.31,9.28
		c2.64,0,5.25-0.35,7.76-1.04c5.29-1.46,10.16-4.3,14.09-8.22c3.93-3.93,6.77-8.8,8.22-14.09c3.4-12.38-1.7-26.01-12.71-33.91
		l-17.88-12.84c-5.22-3.75-10.32-7.65-15.3-11.67l-34.85,34.85C1181.06,218.38,1184.95,223.48,1188.7,228.7z"/>
	<path class="st3" d="M1148.4,111.43l-12.84-17.88c-6.19-8.61-15.96-13.75-26.15-13.75c-2.64,0-5.25,0.35-7.76,1.04
		c-5.29,1.45-10.16,4.3-14.09,8.22c-3.92,3.92-6.77,8.8-8.22,14.09c-3.4,12.38,1.7,26.01,12.71,33.92l17.88,12.84
		c5.22,3.75,10.32,7.65,15.3,11.67l34.85-34.85C1156.05,121.75,1152.15,116.65,1148.4,111.43z"/>
	<path class="st1" d="M1076.26,159.05l17.88,12.84c4.02,2.89,7.96,5.88,11.83,8.94l5.62-5.62c-4.2-3.34-8.48-6.6-12.85-9.74
		l-17.88-12.84c-17.48-12.56-25.52-34.48-20-54.56c2.33-8.48,6.88-16.28,13.15-22.55c6.27-6.27,14.07-10.82,22.55-13.15
		c4.16-1.14,8.47-1.72,12.81-1.72c16.37,0,31.97,8.12,41.74,21.73l12.84,17.88c3.14,4.37,6.4,8.65,9.74,12.85l5.62-5.62
		c-3.06-3.87-6.05-7.81-8.94-11.84l-12.84-17.88c-11.26-15.67-29.25-25.03-48.12-25.03c-5.05,0-10.08,0.68-14.95,2.02
		c-9.8,2.7-18.81,7.95-26.04,15.18c-7.24,7.24-12.48,16.24-15.18,26.05C1046.85,119.23,1056.1,144.57,1076.26,159.05z"/>
	<path class="st1" d="M1260.85,181.08l-17.88-12.84c-4.02-2.89-7.96-5.88-11.84-8.94l-5.62,5.62c4.2,3.34,8.47,6.6,12.85,9.74
		l17.88,12.84c17.49,12.56,25.52,34.48,20,54.55c-2.33,8.48-6.88,16.28-13.15,22.55c-6.27,6.27-14.07,10.82-22.55,13.15
		c-4.16,1.14-8.46,1.72-12.81,1.72c0,0,0,0,0,0c-16.37,0-31.97-8.12-41.74-21.73l-12.84-17.88c-3.14-4.37-6.4-8.65-9.74-12.85
		l-5.62,5.62c3.06,3.87,6.05,7.81,8.94,11.84l12.84,17.88c11.26,15.67,29.25,25.03,48.12,25.03c5.05,0,10.08-0.68,14.95-2.02
		c9.8-2.7,18.81-7.95,26.05-15.18c7.23-7.23,12.48-16.24,15.18-26.05C1290.26,220.91,1281.01,195.56,1260.85,181.08z"/>
	<path class="st2" d="M1264.13,176.51l-17.88-12.84c-3.8-2.73-7.52-5.54-11.18-8.43c2.91-3.74,2.65-9.17-0.83-12.65
		c-1.8-1.8-4.2-2.8-6.75-2.8c-0.49,0-0.96,0.05-1.43,0.12c-0.27-1.97-1.15-3.86-2.66-5.38l-0.19-0.19
		c-1.78-1.78-4.15-2.77-6.67-2.77c-0.41,0-0.82,0.04-1.22,0.09c-0.26-1.97-1.13-3.88-2.64-5.39l-0.33-0.33
		c-1.47-1.47-3.36-2.39-5.39-2.65c0.05-0.4,0.09-0.8,0.09-1.21c0-2.52-0.98-4.89-2.76-6.67l-0.2-0.2c-1.47-1.47-3.34-2.39-5.37-2.67
		c0.07-0.47,0.12-0.94,0.12-1.43c0-2.55-0.99-4.95-2.84-6.8c-1.8-1.8-4.2-2.8-6.75-2.8c-2.15,0-4.18,0.71-5.85,2.01
		c-2.89-3.66-5.7-7.38-8.43-11.18l-12.84-17.88c-12.31-17.14-32.01-27.37-52.69-27.37c-5.56,0-11.09,0.75-16.44,2.22
		c-10.74,2.96-20.61,8.7-28.53,16.63s-13.67,17.79-16.63,28.53c-7.02,25.5,3.09,53.28,25.16,69.13l17.88,12.84
		c3.8,2.73,7.52,5.54,11.18,8.43c-1.3,1.67-2.01,3.7-2.01,5.85c0,2.55,0.99,4.95,2.84,6.8c1.8,1.8,4.2,2.8,6.75,2.8
		c0.49,0,0.96-0.05,1.43-0.12c0.27,1.97,1.15,3.86,2.66,5.37l0.2,0.19c1.78,1.78,4.15,2.77,6.67,2.77c0.41,0,0.82-0.04,1.22-0.09
		c0.26,1.97,1.13,3.88,2.64,5.39l0.33,0.33c1.47,1.47,3.36,2.39,5.39,2.65c-0.05,0.4-0.09,0.8-0.09,1.21c0,2.52,0.98,4.89,2.76,6.67
		l0.2,0.2c1.47,1.47,3.34,2.39,5.37,2.67c-0.07,0.47-0.12,0.94-0.12,1.43c0,2.55,0.99,4.95,2.84,6.8c1.8,1.8,4.2,2.8,6.75,2.8
		c2.15,0,4.18-0.71,5.85-2.01c2.89,3.66,5.7,7.38,8.43,11.18l12.84,17.88c12.31,17.14,32.01,27.37,52.69,27.37c0,0,0,0,0,0
		c5.56,0,11.09-0.75,16.44-2.22c10.74-2.96,20.61-8.7,28.53-16.63c7.92-7.92,13.67-17.79,16.63-28.53
		C1296.3,220.14,1286.19,192.36,1264.13,176.51z M1283.86,244.15c-2.7,9.8-7.95,18.81-15.18,26.05
		c-7.23,7.23-16.24,12.48-26.05,15.18c-4.87,1.34-9.89,2.02-14.95,2.02c-18.87,0-36.86-9.36-48.12-25.03l-12.84-17.88
		c-2.89-4.02-5.88-7.96-8.94-11.84l5.62-5.62c3.34,4.2,6.6,8.48,9.74,12.85l12.84,17.88c9.77,13.6,25.38,21.72,41.74,21.73
		c0,0,0,0,0,0c4.34,0,8.65-0.58,12.81-1.72c8.49-2.33,16.29-6.88,22.55-13.15c6.27-6.27,10.82-14.07,13.15-22.55
		c5.52-20.07-2.52-41.99-20-54.55l-17.88-12.84c-4.37-3.14-8.65-6.4-12.85-9.74l5.62-5.62c3.87,3.06,7.81,6.05,11.84,8.94
		l17.88,12.84C1281.01,195.56,1290.26,220.91,1283.86,244.15z M1145.06,231.78c-0.74-0.74-1.15-1.72-1.15-2.77s0.41-2.03,1.15-2.77
		l79.67-79.67c0.74-0.74,1.72-1.15,2.77-1.15c1.05,0,2.03,0.41,2.82,1.19c1.53,1.53,1.53,4.01,0,5.54l-79.67,79.67
		C1149.17,233.31,1146.63,233.35,1145.06,231.78z M1136.82,220.74c-0.72-0.72-1.12-1.68-1.12-2.7c0-1.02,0.4-1.98,1.12-2.7
		l77.02-77.02c0.72-0.72,1.68-1.12,2.7-1.12c1.02,0,1.98,0.4,2.7,1.12l0.19,0.19c1.48,1.48,1.49,3.9,0.01,5.39l-77.03,77.03
		c-1.44,1.44-3.95,1.44-5.39,0L1136.82,220.74z M1128.41,209.87c-0.7-0.7-1.09-1.64-1.09-2.63s0.39-1.93,1.09-2.63l74.69-74.69
		c0.7-0.7,1.64-1.09,2.63-1.09s1.93,0.39,2.63,1.09l0.33,0.33c1.45,1.45,1.45,3.81,0,5.26L1134,210.21c-1.41,1.4-3.85,1.4-5.25,0
		L1128.41,209.87z M1105.64,190.74c0-1.05,0.41-2.03,1.15-2.77l79.67-79.67c0.74-0.74,1.72-1.15,2.77-1.15
		c1.05,0,2.03,0.41,2.82,1.19c0.74,0.74,1.15,1.72,1.15,2.77c0,1.05-0.41,2.03-1.15,2.77l-79.67,79.67
		c-1.48,1.48-4.01,1.53-5.59-0.05C1106.05,192.77,1105.64,191.79,1105.64,190.74z M1053.24,95.98c2.7-9.8,7.95-18.81,15.18-26.05
		c7.23-7.23,16.24-12.48,26.04-15.18c4.87-1.34,9.89-2.02,14.95-2.02c18.88,0,36.87,9.36,48.12,25.03l12.84,17.88
		c2.89,4.02,5.88,7.96,8.94,11.84l-5.62,5.62c-3.34-4.2-6.6-8.48-9.74-12.85l-12.84-17.88c-9.77-13.6-25.38-21.73-41.74-21.73
		c-4.34,0-8.65,0.58-12.81,1.72c-8.48,2.33-16.28,6.88-22.55,13.15c-6.27,6.27-10.82,14.07-13.15,22.55
		c-5.52,20.07,2.52,42,20,54.56l17.88,12.84c4.37,3.14,8.65,6.4,12.85,9.74l-5.62,5.62c-3.87-3.06-7.81-6.05-11.83-8.94
		l-17.88-12.84C1056.1,144.57,1046.85,119.23,1053.24,95.98z M1109.92,149.91l-17.88-12.84c-11.01-7.91-16.11-21.54-12.71-33.92
		c1.46-5.29,4.3-10.16,8.22-14.09c3.93-3.93,8.8-6.77,14.09-8.22c2.52-0.69,5.13-1.04,7.76-1.04c10.19,0,19.97,5.14,26.15,13.75
		l12.84,17.88c3.75,5.22,7.65,10.32,11.67,15.3l-34.85,34.85C1120.24,157.56,1115.14,153.66,1109.92,149.91z M1152.97,108.15
		l-12.84-17.88c-7.24-10.08-18.72-16.09-30.72-16.09c-3.14,0-6.26,0.42-9.26,1.24c-6.23,1.71-11.96,5.06-16.57,9.67
		c-4.61,4.61-7.96,10.34-9.67,16.57c-4.03,14.64,1.94,30.71,14.85,39.98l17.88,12.84c4.97,3.57,9.83,7.28,14.58,11.1l-5.62,5.62
		c-4.43-3.54-8.95-6.98-13.57-10.3l-17.88-12.84c-15.58-11.19-22.76-30.68-17.86-48.49c2.08-7.55,6.12-14.48,11.7-20.07
		c5.58-5.58,12.52-9.63,20.07-11.7c3.67-1.01,7.48-1.52,11.32-1.52c14.56,0,28.46,7.25,37.17,19.38l12.84,17.88
		c3.32,4.62,6.76,9.14,10.3,13.57l-5.62,5.62C1160.25,117.98,1156.54,113.12,1152.97,108.15z M1117.68,201.61
		c-1.49-1.49-1.49-3.9,0-5.39l38.51-38.51l38.51-38.51c0.72-0.72,1.68-1.12,2.7-1.12c1.02,0,1.98,0.4,2.69,1.11l0.2,0.2
		c0.72,0.72,1.12,1.68,1.12,2.69c0,1.02-0.4,1.98-1.12,2.7l-1.17,1.17l-74.69,74.69l-1.17,1.17c-1.44,1.44-3.95,1.44-5.39,0
		L1117.68,201.61z M1227.19,190.22l17.88,12.84c11.01,7.91,16.11,21.53,12.71,33.91c-1.45,5.29-4.3,10.16-8.22,14.09
		c-3.93,3.92-8.8,6.77-14.09,8.22c-2.51,0.69-5.13,1.04-7.76,1.04c-8.28,0-16.29-3.39-22.31-9.28c-1.39-1.36-2.68-2.85-3.84-4.47
		l-12.84-17.88c-3.75-5.22-7.65-10.32-11.67-15.3l34.85-34.85C1216.87,182.57,1221.97,186.47,1227.19,190.22z M1184.13,231.98
		l12.84,17.88c0.9,1.26,1.88,2.46,2.91,3.58c7.21,7.9,17.32,12.51,27.82,12.51c3.14,0,6.25-0.42,9.25-1.24
		c6.23-1.71,11.96-5.06,16.57-9.67c4.61-4.61,7.96-10.35,9.67-16.57c1.01-3.66,1.39-7.41,1.19-11.12
		c-0.59-11.13-6.36-21.9-16.04-28.86l-17.88-12.84c-4.97-3.57-9.83-7.28-14.58-11.1l5.62-5.62c4.43,3.54,8.95,6.98,13.57,10.3
		l17.88,12.84c15.58,11.19,22.76,30.68,17.86,48.49c-2.08,7.55-6.12,14.48-11.7,20.07c-5.58,5.58-12.52,9.63-20.07,11.7
		c-3.67,1.01-7.48,1.52-11.31,1.52c0,0,0,0,0,0c-14.56,0-28.46-7.25-37.17-19.38l-12.84-17.88c-3.32-4.62-6.76-9.14-10.3-13.57
		l5.62-5.62C1176.85,222.16,1180.56,227.01,1184.13,231.98z"/>
	<path class="st0" d="M1177.71,236.59l12.84,17.88c8.72,12.13,22.61,19.38,37.17,19.38c0,0,0,0,0,0c3.84,0,7.64-0.51,11.31-1.52
		c7.55-2.08,14.49-6.12,20.07-11.7c5.58-5.58,9.63-12.52,11.7-20.07c4.9-17.81-2.28-37.3-17.86-48.49l-17.88-12.84
		c-4.62-3.32-9.14-6.76-13.57-10.3l-5.62,5.62c4.76,3.82,9.61,7.53,14.58,11.1l17.88,12.84c9.68,6.95,15.46,17.73,16.04,28.86
		c0.2,3.71-0.19,7.46-1.19,11.12c-1.71,6.23-5.06,11.96-9.67,16.57c-4.61,4.61-10.34,7.96-16.57,9.67c-3,0.82-6.11,1.24-9.25,1.24
		c-10.5,0-20.6-4.61-27.82-12.51c-1.03-1.13-2-2.33-2.91-3.58l-12.84-17.88c-3.57-4.97-7.28-9.83-11.1-14.58l-5.62,5.62
		C1170.95,227.45,1174.39,231.97,1177.71,236.59z"/>
	<path class="st0" d="M1159.39,103.54l-12.84-17.88c-8.72-12.14-22.62-19.38-37.17-19.38c-3.84,0-7.65,0.51-11.32,1.52
		c-7.55,2.07-14.49,6.12-20.07,11.7c-5.58,5.58-9.63,12.52-11.7,20.07c-4.9,17.81,2.28,37.3,17.86,48.49l17.88,12.84
		c4.62,3.32,9.14,6.76,13.57,10.3l5.62-5.62c-4.76-3.82-9.61-7.53-14.58-11.1l-17.88-12.84c-12.91-9.27-18.88-25.34-14.85-39.98
		c1.71-6.23,5.06-11.96,9.67-16.57c4.61-4.61,10.34-7.96,16.57-9.67c3-0.82,6.11-1.24,9.26-1.24c12,0,23.48,6.02,30.72,16.09
		l12.84,17.88c3.57,4.97,7.28,9.83,11.1,14.58l5.62-5.62C1166.15,112.68,1162.71,108.16,1159.39,103.54z"/>
	<path class="st1" d="M1134,210.21l74.69-74.69c1.45-1.45,1.45-3.81,0-5.26l-0.33-0.33c-0.7-0.7-1.64-1.09-2.63-1.09
		s-1.93,0.39-2.63,1.09l-74.69,74.69c-0.7,0.7-1.09,1.64-1.09,2.63s0.39,1.93,1.09,2.63l0.33,0.33
		C1130.15,211.61,1132.59,211.61,1134,210.21z"/>
	<path class="st0" d="M1123.27,201.8l1.17-1.17l74.69-74.69l1.17-1.17c0.72-0.72,1.12-1.68,1.12-2.7c0-1.02-0.4-1.98-1.12-2.69
		l-0.2-0.2c-0.72-0.72-1.67-1.11-2.69-1.11c-1.02,0-1.98,0.4-2.7,1.12l-38.51,38.51l-38.51,38.51c-1.49,1.49-1.49,3.9,0,5.39
		l0.19,0.19C1119.32,203.25,1121.83,203.24,1123.27,201.8z"/>
	<path class="st1" d="M1112.38,193.56l79.67-79.67c0.74-0.74,1.15-1.72,1.15-2.77c0-1.05-0.41-2.03-1.15-2.77
		c-0.79-0.79-1.77-1.19-2.82-1.19c-1.05,0-2.03,0.41-2.77,1.15l-79.67,79.67c-0.74,0.74-1.15,1.72-1.15,2.77s0.41,2.03,1.15,2.77
		C1108.37,195.08,1110.9,195.04,1112.38,193.56z"/>
	<path class="st0" d="M1142.4,220.94l77.03-77.03c1.48-1.49,1.48-3.9-0.01-5.39l-0.19-0.19c-0.73-0.73-1.68-1.12-2.7-1.12
		c-1.02,0-1.98,0.4-2.7,1.12l-77.02,77.02c-0.72,0.72-1.12,1.68-1.12,2.7c0,1.02,0.4,1.98,1.12,2.7l0.2,0.2
		C1138.45,222.37,1140.96,222.38,1142.4,220.94z"/>
	<path class="st1" d="M1230.31,152.16c1.53-1.53,1.53-4.01,0-5.54c-0.79-0.79-1.77-1.19-2.82-1.19c-1.05,0-2.03,0.41-2.77,1.15
		l-79.67,79.67c-0.74,0.74-1.15,1.72-1.15,2.77s0.41,2.03,1.15,2.77c1.57,1.57,4.11,1.53,5.59,0.05L1230.31,152.16z"/>
</g>
<g>
	<path class="st0" d="M185.27,513.63c0.84,0.06,1.61,0.49,2.1,1.17l7.53,10.56l16.06-22.46l-15.26-21.34l-57.85,80.89l45.18-47.95
		C183.61,513.9,184.42,513.57,185.27,513.63z"/>
	<polygon class="st1" points="184.78,520.86 117.84,591.9 147.32,591.9 191.44,530.2 	"/>
	<path class="st0" d="M175.29,562.45l60.07-63.76c0.58-0.61,1.39-0.94,2.24-0.88c0.84,0.06,1.61,0.49,2.1,1.17l10.48,14.69
		l10.48-14.69c0.49-0.69,1.26-1.12,2.1-1.17c0.85-0.06,1.66,0.27,2.24,0.88l60.07,63.76l-74.89-104.72L175.29,562.45z"/>
	<path class="st1" d="M345.09,591.9l-81.83-86.85l-10.78,15.11c-0.53,0.74-1.38,1.18-2.29,1.18s-1.76-0.44-2.29-1.18l-10.78-15.11
		l-81.83,86.85h118.29h1.05H345.09z"/>
	<path class="st2" d="M354.39,594.8c0-0.14,0.01-0.29-0.01-0.43c-0.01-0.12-0.04-0.23-0.07-0.35c-0.04-0.14-0.08-0.27-0.13-0.4
		c-0.05-0.11-0.11-0.22-0.17-0.33c-0.04-0.07-0.06-0.14-0.11-0.21L252.47,451.26c-0.53-0.74-1.38-1.18-2.29-1.18
		s-1.76,0.44-2.29,1.18l-33.47,46.81l-16.43-22.97c-0.53-0.74-1.38-1.18-2.29-1.18c-0.91,0-1.76,0.44-2.29,1.18l-84.38,117.99
		c-0.05,0.07-0.07,0.14-0.11,0.21c-0.06,0.11-0.12,0.21-0.17,0.33c-0.06,0.13-0.1,0.27-0.13,0.4c-0.03,0.12-0.06,0.23-0.07,0.35
		c-0.02,0.14-0.02,0.29-0.01,0.43c0,0.12,0,0.23,0.02,0.35c0.02,0.15,0.07,0.29,0.12,0.43c0.03,0.08,0.03,0.17,0.07,0.25
		c0.01,0.03,0.04,0.05,0.05,0.08c0.01,0.03,0.02,0.06,0.03,0.09c0.06,0.11,0.14,0.2,0.21,0.29c0.07,0.09,0.12,0.2,0.2,0.28
		c0.1,0.12,0.23,0.21,0.35,0.31c0.08,0.07,0.16,0.14,0.25,0.2c0.15,0.09,0.31,0.15,0.47,0.22c0.08,0.03,0.16,0.08,0.25,0.11
		c0.25,0.07,0.52,0.12,0.79,0.12h37.44h131.32h71.52c0.27,0,0.54-0.04,0.79-0.12c0.09-0.03,0.16-0.07,0.25-0.11
		c0.16-0.06,0.32-0.13,0.47-0.22c0.09-0.06,0.16-0.13,0.25-0.2c0.12-0.1,0.24-0.19,0.35-0.31c0.08-0.09,0.13-0.19,0.2-0.28
		c0.07-0.1,0.15-0.19,0.21-0.29c0.02-0.03,0.02-0.06,0.03-0.09c0.01-0.03,0.04-0.05,0.05-0.08c0.04-0.08,0.04-0.17,0.07-0.25
		c0.05-0.14,0.09-0.28,0.12-0.43C354.39,595.03,354.39,594.92,354.39,594.8z M195.7,481.56l15.26,21.34l-16.06,22.46l-7.53-10.56
		c-0.49-0.69-1.26-1.12-2.1-1.17c-0.85-0.06-1.66,0.27-2.24,0.88l-45.18,47.95L195.7,481.56z M265,498.7
		c-0.58-0.61-1.39-0.94-2.24-0.88c-0.84,0.06-1.61,0.49-2.1,1.17l-10.48,14.69l-10.48-14.69c-0.49-0.69-1.26-1.12-2.1-1.17
		c-0.85-0.06-1.66,0.27-2.24,0.88l-60.07,63.76l74.89-104.72l74.89,104.72L265,498.7z M117.84,591.9l66.94-71.04l6.66,9.34
		l-44.13,61.71H117.84z M273.57,591.9H155.28l81.83-86.85l10.78,15.11c0.53,0.74,1.38,1.18,2.29,1.18s1.76-0.44,2.29-1.18
		l10.78-15.11l81.83,86.85h-70.47H273.57z"/>
</g>
<g>
	<path class="st3" d="M579.15,569.91c3.92,0,7.61-1.52,10.37-4.29l22.77-22.77c13.53-13.53,15.72-34.96,5.21-50.94l-67.64-102.85
		c-3.61-5.5-9.44-9.03-15.98-9.7c-0.75-0.08-1.5-0.11-2.25-0.11c-5.8,0-11.25,2.27-15.37,6.38l-45.03,45.03
		c-10.32,10.32-10.32,27.11,0,37.43l13.97,13.97c1.59-1.09,3.46-1.67,5.43-1.67c2.58,0,5,1,6.83,2.83l47.85,47.86
		c1.82,1.82,2.83,4.25,2.83,6.83c0,1.97-0.59,3.84-1.67,5.43l22.31,22.31C571.54,568.39,575.23,569.91,579.15,569.91z"/>
	<path class="st0" d="M635.87,479.82l-67.64-102.85c-8.12-12.35-21.81-19.72-36.62-19.72c-11.66,0-22.63,4.55-30.9,12.82
		l-45.03,45.03c-18.22,18.22-18.86,47.47-1.93,66.47l11.6-11.6c-10.57-12.6-9.94-31.46,1.9-43.3l45.03-45.03
		c5.18-5.18,12.05-8.03,19.35-8.03c0.94,0,1.88,0.05,2.82,0.14c8.23,0.84,15.56,5.29,20.11,12.21l67.64,102.85
		c11.97,18.21,9.48,42.61-5.93,58.02L593.5,569.6c-3.83,3.83-8.93,5.94-14.35,5.94s-10.52-2.11-14.35-5.94l-6.35-6.35l-11.57,11.57
		l6.35,6.35c6.92,6.92,16.13,10.74,25.92,10.74s19-3.81,25.92-10.74l22.77-22.77C648.71,537.53,652.09,504.48,635.87,479.82z"/>
	<path class="st2" d="M640.57,476.73l-67.64-102.85c-9.17-13.94-24.61-22.26-41.32-22.26c-13.16,0-25.55,5.14-34.88,14.47
		l-45.03,45.03c-21.09,21.09-21.09,55.4,0,76.48l13.97,13.97c-1.09,1.59-1.67,3.46-1.67,5.43c0,2.58,1,5,2.83,6.83l7.34,7.34
		c0,0,0,0,0,0.01l33.17,33.17c0,0,0.01,0.01,0.01,0.01l7.33,7.33c1.82,1.82,4.25,2.83,6.83,2.83c1.97,0,3.84-0.59,5.43-1.67
		l22.31,22.31c7.99,7.99,18.61,12.39,29.9,12.39s21.91-4.4,29.9-12.39l22.77-22.77C654.57,539.63,658.25,503.61,640.57,476.73z
		 M579.15,591.9c-9.79,0-19-3.81-25.92-10.74l-6.35-6.35l11.57-11.57l6.35,6.35c3.83,3.83,8.93,5.94,14.35,5.94
		s10.52-2.11,14.35-5.94l22.77-22.77c15.41-15.41,17.9-39.81,5.93-58.02l-67.64-102.85c-4.55-6.92-11.88-11.36-20.11-12.21
		c-0.93-0.1-1.88-0.14-2.82-0.14c-7.3,0-14.17,2.85-19.35,8.03l-45.03,45.03c-11.84,11.84-12.47,30.71-1.9,43.3l-11.6,11.6
		c-16.93-19-16.3-48.25,1.93-66.47l45.03-45.03c8.27-8.27,19.24-12.82,30.9-12.82c14.81,0,28.49,7.37,36.62,19.72l67.64,102.85
		c16.22,24.66,12.84,57.71-8.03,78.57l-22.77,22.77C598.15,588.09,588.94,591.9,579.15,591.9z M470.81,509.85
		c-0.76-0.76-1.18-1.77-1.18-2.85c0-1.08,0.42-2.09,1.18-2.85l0.86-0.86c0,0,0,0,0,0l15.4-15.4c0,0,0,0,0,0l0.71-0.71
		c0.76-0.76,1.77-1.18,2.85-1.18c1.08,0,2.09,0.42,2.85,1.18l7.33,7.33c0,0,0.01,0.01,0.01,0.01l33.17,33.17c0,0,0,0,0.01,0.01
		l7.34,7.34c0.76,0.76,1.18,1.77,1.18,2.85c0,1.08-0.42,2.09-1.18,2.85l-16.98,16.98c-1.52,1.52-4.17,1.52-5.7,0L470.81,509.85z
		 M554.47,559.27l-11.42,11.42l-11.86-11.86l11.42-11.42L554.47,559.27z M546.47,543.31c1.09-1.59,1.67-3.46,1.67-5.43
		c0-2.58-1-5-2.83-6.83l-47.85-47.86c-1.82-1.82-4.25-2.83-6.83-2.83c-1.97,0-3.84,0.59-5.43,1.67l-13.97-13.97
		c-10.32-10.32-10.32-27.11,0-37.43l45.03-45.03c4.12-4.11,9.57-6.38,15.37-6.38c0.75,0,1.5,0.04,2.25,0.11
		c6.54,0.67,12.37,4.2,15.98,9.7L617.5,491.9c10.52,15.99,8.33,37.41-5.21,50.94l-22.77,22.77c-2.77,2.77-6.45,4.29-10.37,4.29
		s-7.61-1.52-10.37-4.29L546.47,543.31z M481.1,485.9l-11.42,11.42l-11.86-11.86l11.42-11.42L481.1,485.9z"/>
	<path class="st1" d="M524.36,557.71l16.98-16.98c0.76-0.76,1.18-1.77,1.18-2.85c0-1.08-0.42-2.09-1.18-2.85L534,527.7
		c0,0,0,0-0.01-0.01l-33.17-33.17c0,0-0.01-0.01-0.01-0.01l-7.33-7.33c-0.76-0.76-1.77-1.18-2.85-1.18c-1.08,0-2.09,0.42-2.85,1.18
		l-0.71,0.71c0,0,0,0,0,0l-15.4,15.4c0,0,0,0,0,0l-0.86,0.86c-0.76,0.76-1.18,1.77-1.18,2.85c0,1.08,0.42,2.09,1.18,2.85
		l47.85,47.85C520.19,559.23,522.84,559.23,524.36,557.71z M520.66,541.02l-33.17-33.17c-1.1-1.1-1.1-2.88,0-3.98
		c1.1-1.1,2.88-1.1,3.98,0l33.17,33.17c1.1,1.1,1.1,2.88,0,3.98c-0.55,0.55-1.27,0.82-1.99,0.82S521.21,541.57,520.66,541.02z
		 M494.16,497.21c1.1-1.1,2.88-1.1,3.98,0l33.17,33.17c1.1,1.1,1.1,2.88,0,3.98c-0.55,0.55-1.27,0.82-1.99,0.82
		s-1.44-0.27-1.99-0.82l-33.17-33.17C493.06,500.09,493.06,498.31,494.16,497.21z M480.83,510.53c1.1-1.1,2.88-1.1,3.98,0
		l33.17,33.17c1.1,1.1,1.1,2.88,0,3.98c-0.55,0.55-1.27,0.82-1.99,0.82c-0.72,0-1.44-0.27-1.99-0.82l-33.17-33.17
		C479.73,513.41,479.73,511.63,480.83,510.53z"/>
	<path class="st2" d="M480.83,514.51L514,547.68c0.55,0.55,1.27,0.82,1.99,0.82c0.72,0,1.44-0.27,1.99-0.82c1.1-1.1,1.1-2.88,0-3.98
		l-33.17-33.17c-1.1-1.1-2.88-1.1-3.98,0C479.73,511.63,479.73,513.41,480.83,514.51z"/>
	<path class="st2" d="M524.64,537.04l-33.17-33.17c-1.1-1.1-2.88-1.1-3.98,0c-1.1,1.1-1.1,2.88,0,3.98l33.17,33.17
		c0.55,0.55,1.27,0.82,1.99,0.82s1.44-0.27,1.99-0.82C525.74,539.92,525.74,538.14,524.64,537.04z"/>
	<path class="st2" d="M494.16,501.19l33.17,33.17c0.55,0.55,1.27,0.82,1.99,0.82s1.44-0.27,1.99-0.82c1.1-1.1,1.1-2.88,0-3.98
		l-33.17-33.17c-1.1-1.1-2.88-1.1-3.98,0C493.06,498.31,493.06,500.09,494.16,501.19z"/>
	
		<rect x="461.39" y="477.3" transform="matrix(-0.7071 0.7072 -0.7072 -0.7071 1144.8586 497.1101)" class="st1" width="16.15" height="16.77"/>
	
		<rect x="534.75" y="550.67" transform="matrix(-0.7071 0.7071 -0.7071 -0.7071 1321.9766 570.5042)" class="st1" width="16.15" height="16.77"/>
</g>
<g>
	<rect x="1161.5" y="356.9" class="st0" width="14.1" height="10.93"/>
	<path class="st0" d="M1175.6,451.21v-22.86h-14.1v138.39c2.34-0.13,4.69-0.21,7.05-0.21s4.71,0.09,7.05,0.21V506.1V451.21z"/>
	<polygon class="st1" points="1241.61,454.03 1181.23,454.03 1181.23,503.29 1241.61,503.29 1265.44,478.66 	"/>
	<path class="st2" d="M1244.82,449.26c-0.53-0.55-1.26-0.86-2.02-0.86h-61.57v-20.05h61.57c0.76,0,1.49-0.31,2.02-0.86l26.56-27.44
		c1.06-1.09,1.06-2.82,0-3.91l-26.56-27.45c-0.53-0.55-1.26-0.86-2.02-0.86h-61.57v-13.75c0-1.55-1.26-2.81-2.81-2.81h-19.73
		c-1.55,0-2.81,1.26-2.81,2.81v13.75h-61.57c-0.76,0-1.49,0.31-2.02,0.86l-26.56,27.45c-1.06,1.09-1.06,2.82,0,3.91l26.56,27.44
		c0.53,0.55,1.26,0.86,2.02,0.86h61.57v138.82c-23.37,2.29-45.38,10.91-64.29,25.31c-0.96,0.73-1.35,2-0.96,3.14
		c0.39,1.14,1.46,1.91,2.67,1.91h150.53c1.21,0,2.28-0.77,2.67-1.91c0.39-1.14,0-2.41-0.96-3.14
		c-18.91-14.4-40.93-23.02-64.29-25.31v-58.25h61.57c0.76,0,1.49-0.31,2.02-0.86l26.56-27.45c1.06-1.09,1.06-2.82,0-3.91
		L1244.82,449.26z M1181.23,503.29v-49.26h60.37l23.84,24.63l-23.84,24.63H1181.23z M1102.14,591.9
		c19.75-12.95,42.54-19.75,66.42-19.75c23.88,0,46.67,6.8,66.42,19.75H1102.14z M1168.55,566.53c-2.36,0-4.71,0.09-7.05,0.21V428.35
		h14.1v22.86v54.89v60.64C1173.26,566.61,1170.92,566.53,1168.55,566.53z M1175.6,356.9v10.93h-14.1V356.9H1175.6z M1241.61,373.46
		l23.84,24.63l-23.84,24.63H1095.5l-23.84-24.63l23.84-24.63H1241.61z"/>
	<polygon class="st0" points="1095.5,373.46 1071.66,398.1 1095.5,422.73 1241.61,422.73 1265.44,398.1 1241.61,373.46 	"/>
	<path class="st1" d="M1168.55,572.15c-23.88,0-46.67,6.8-66.42,19.75h132.83C1215.22,578.96,1192.43,572.15,1168.55,572.15z"/>
</g>
<g>
	<path class="st0" d="M206.14,748.75c0.37,0.15,0.73,0.29,1.1,0.44c0.7,0.27,1.4,0.53,2.1,0.78c0.37,0.13,0.74,0.26,1.12,0.39
		c0.76,0.25,1.53,0.49,2.3,0.71c0.3,0.09,0.61,0.19,0.91,0.27c1.07,0.3,2.15,0.57,3.24,0.81c0.17,0.04,0.34,0.07,0.51,0.1
		c0.92,0.2,1.85,0.38,2.78,0.54c0.37,0.06,0.73,0.11,1.1,0.17c0.75,0.11,1.5,0.22,2.25,0.31c0.4,0.05,0.8,0.09,1.2,0.13
		c0.76,0.08,1.52,0.14,2.28,0.18c0.37,0.02,0.75,0.05,1.12,0.07c0.17,0.01,0.33,0.01,0.5,0.01v-9.26
		c-7.07-0.34-13.87-1.94-20.3-4.78l-2.84,8.84C205.72,748.56,205.93,748.66,206.14,748.75z"/>
	<polygon class="st0" points="119.05,908.24 114.96,917.96 132.8,926.39 137.81,917.1 	"/>
	<path class="st1" d="M228.65,926.74V759.32c-9.34-0.35-18.36-2.47-26.87-6.31l-17.3,4.43c-10.24,2.62-18.49,10.12-22.07,20.06
		l-44.6,123.93l26.02,12.29l23.06-56.05c0.5-1.2,1.75-1.9,3.03-1.71c1.28,0.2,2.27,1.25,2.37,2.55l5.69,68.23H228.65z
		 M186.42,887.92l21.39-21.39c1.1-1.1,2.88-1.1,3.98,0c1.1,1.1,1.1,2.88,0,3.98L190.4,891.9c-0.55,0.55-1.27,0.82-1.99,0.82
		s-1.44-0.27-1.99-0.82C185.32,890.8,185.32,889.02,186.42,887.92z"/>
	<path class="st0" d="M234.28,744.41v9.26c0.17-0.01,0.33-0.01,0.5-0.01c0.37-0.02,0.75-0.05,1.12-0.07
		c0.76-0.05,1.52-0.11,2.28-0.18c0.4-0.04,0.8-0.08,1.2-0.13c0.75-0.09,1.51-0.19,2.25-0.31c0.37-0.06,0.73-0.11,1.1-0.17
		c0.93-0.16,1.85-0.34,2.78-0.54c0.17-0.04,0.34-0.06,0.51-0.1c1.09-0.24,2.16-0.52,3.24-0.81c0.31-0.08,0.61-0.18,0.91-0.27
		c0.77-0.23,1.54-0.46,2.3-0.71c0.37-0.12,0.75-0.26,1.12-0.39c0.7-0.25,1.4-0.51,2.1-0.78c0.37-0.14,0.73-0.29,1.1-0.44
		c0.21-0.09,0.43-0.19,0.64-0.28l-2.84-8.84C248.15,742.48,241.35,744.08,234.28,744.41z"/>
	<polygon class="st0" points="325.12,917.1 330.12,926.39 347.97,917.96 343.88,908.24 	"/>
	<path class="st2" d="M354.2,918.27l-5.22-12.44l0.85-0.4c1.31-0.62,1.94-2.13,1.45-3.5L305.81,775.6
		c-4.21-11.7-13.92-20.53-25.97-23.61l-16.75-4.29l-4.14-12.85c-0.25-0.79-0.84-1.42-1.6-1.74c-0.76-0.32-1.63-0.28-2.36,0.09
		c-7.33,3.75-15.24,5.64-23.53,5.64c-8.29,0-16.2-1.9-23.53-5.64c-0.74-0.38-1.6-0.41-2.36-0.09c-0.76,0.32-1.35,0.95-1.6,1.74
		l-4.13,12.85l-16.75,4.29c-12.05,3.08-21.75,11.91-25.97,23.61l-45.46,126.34c-0.49,1.36,0.14,2.88,1.45,3.5l0.85,0.4l-5.22,12.44
		c-0.58,1.39,0.03,2.99,1.39,3.63l22.69,10.72c0.39,0.18,0.8,0.27,1.2,0.27c1,0,1.97-0.54,2.48-1.48l6.42-11.9l1.21,0.57
		c0.7,0.33,1.5,0.36,2.22,0.08c0.72-0.28,1.29-0.84,1.59-1.55l19.75-48.01l4.93,59.19c0.12,1.46,1.34,2.58,2.8,2.58h56.06h56.06
		c1.46,0,2.68-1.12,2.8-2.58l4.93-59.19l19.75,48.01c0.29,0.71,0.87,1.28,1.59,1.55c0.72,0.28,1.52,0.25,2.22-0.08l1.21-0.57
		l6.41,11.9c0.51,0.94,1.47,1.48,2.48,1.48c0.4,0,0.81-0.09,1.2-0.27l22.69-10.72C354.17,921.26,354.78,919.66,354.2,918.27z
		 M330.12,926.39l-5.01-9.29l18.77-8.86l4.08,9.73L330.12,926.39z M292.99,855.96c-1.28,0.2-2.27,1.25-2.37,2.55l-5.69,68.23h-50.66
		V759.32c9.34-0.35,18.36-2.47,26.87-6.31l17.3,4.43c10.24,2.62,18.49,10.12,22.07,20.06l44.6,123.93l-26.02,12.29l-23.06-56.05
		C295.53,856.46,294.28,855.76,292.99,855.96z M169.93,855.96c-1.28-0.19-2.54,0.51-3.03,1.71l-23.06,56.05l-26.02-12.29
		l44.6-123.93c3.58-9.94,11.83-17.44,22.07-20.06l17.3-4.43c8.5,3.84,17.52,5.95,26.87,6.31v167.42h-50.66l-5.69-68.23
		C172.2,857.21,171.22,856.16,169.93,855.96z M256.79,748.75c-0.37,0.15-0.73,0.29-1.1,0.44c-0.7,0.27-1.4,0.53-2.1,0.78
		c-0.37,0.13-0.74,0.26-1.12,0.39c-0.76,0.25-1.53,0.49-2.3,0.71c-0.3,0.09-0.61,0.19-0.91,0.27c-1.07,0.3-2.15,0.57-3.24,0.81
		c-0.17,0.04-0.34,0.07-0.51,0.1c-0.92,0.2-1.85,0.38-2.78,0.54c-0.37,0.06-0.73,0.11-1.1,0.17c-0.75,0.11-1.5,0.22-2.25,0.31
		c-0.4,0.05-0.8,0.09-1.2,0.13c-0.76,0.08-1.52,0.14-2.28,0.18c-0.37,0.02-0.75,0.05-1.12,0.07c-0.17,0.01-0.33,0.01-0.5,0.01v-9.26
		c7.07-0.34,13.87-1.94,20.3-4.78l2.84,8.84C257.21,748.56,257,748.66,256.79,748.75z M228.65,744.41v9.26
		c-0.17-0.01-0.33-0.01-0.5-0.01c-0.37-0.02-0.75-0.05-1.12-0.07c-0.76-0.05-1.52-0.11-2.28-0.18c-0.4-0.04-0.8-0.08-1.2-0.13
		c-0.75-0.09-1.51-0.19-2.25-0.31c-0.37-0.06-0.73-0.11-1.1-0.17c-0.93-0.16-1.85-0.34-2.78-0.54c-0.17-0.04-0.34-0.06-0.51-0.1
		c-1.09-0.24-2.16-0.52-3.24-0.81c-0.31-0.08-0.61-0.18-0.91-0.27c-0.77-0.23-1.54-0.46-2.3-0.71c-0.37-0.12-0.75-0.26-1.12-0.39
		c-0.7-0.25-1.4-0.51-2.1-0.78c-0.37-0.14-0.73-0.29-1.1-0.44c-0.21-0.09-0.43-0.19-0.64-0.28l2.84-8.84
		C214.78,742.48,221.58,744.08,228.65,744.41z M114.96,917.96l4.08-9.73l18.77,8.86l-5.01,9.29L114.96,917.96z"/>
	<path class="st1" d="M345.11,901.44l-44.6-123.93c-3.58-9.94-11.83-17.44-22.07-20.06l-17.3-4.43c-8.5,3.84-17.52,5.95-26.87,6.31
		v167.42h50.66l5.69-68.23c0.11-1.29,1.09-2.35,2.37-2.55c1.28-0.19,2.54,0.51,3.03,1.71l23.06,56.05L345.11,901.44z M276.51,891.9
		c-0.55,0.55-1.27,0.82-1.99,0.82c-0.72,0-1.44-0.27-1.99-0.82l-21.39-21.39c-1.1-1.1-1.1-2.88,0-3.98c1.1-1.1,2.88-1.1,3.98,0
		l21.39,21.39C277.61,889.02,277.61,890.8,276.51,891.9z"/>
	<path class="st2" d="M188.41,892.73c0.72,0,1.44-0.27,1.99-0.82l21.39-21.39c1.1-1.1,1.1-2.88,0-3.98c-1.1-1.1-2.88-1.1-3.98,0
		l-21.39,21.39c-1.1,1.1-1.1,2.88,0,3.98C186.97,892.45,187.69,892.73,188.41,892.73z"/>
	<path class="st2" d="M255.12,866.54c-1.1-1.1-2.88-1.1-3.98,0c-1.1,1.1-1.1,2.88,0,3.98l21.39,21.39c0.55,0.55,1.27,0.82,1.99,0.82
		c0.72,0,1.44-0.27,1.99-0.82c1.1-1.1,1.1-2.88,0-3.98L255.12,866.54z"/>
</g>
<g>
	<path class="st0" d="M813.33,549.51c-0.9-0.99-0.99-2.52-0.14-3.61c0.04-0.06,0.09-0.1,0.14-0.15V432.47l-74.46-13.72v158.87
		l74.46,13.72V549.51z M758.12,503.03c-0.56,0.71-1.38,1.09-2.22,1.09c-0.6,0-1.21-0.19-1.73-0.59l-5.57-4.34
		c-1.23-0.95-1.45-2.72-0.49-3.95c0.95-1.23,2.72-1.45,3.95-0.49l5.57,4.34C758.86,500.03,759.08,501.8,758.12,503.03z M775,516.16
		c-0.56,0.71-1.38,1.08-2.22,1.08c-0.6,0-1.21-0.19-1.73-0.59l-7.99-6.22c-1.23-0.95-1.45-2.72-0.49-3.95
		c0.96-1.23,2.72-1.45,3.95-0.49l7.99,6.22C775.73,513.17,775.95,514.94,775,516.16z M791.87,529.3c-0.56,0.71-1.38,1.08-2.22,1.08
		c-0.6,0-1.21-0.19-1.73-0.59l-7.99-6.22c-1.23-0.96-1.45-2.72-0.49-3.95c0.95-1.23,2.72-1.45,3.95-0.49l7.99,6.22
		C792.61,526.31,792.83,528.07,791.87,529.3z M808.75,542.44c-0.56,0.71-1.38,1.08-2.22,1.08c-0.6,0-1.21-0.19-1.73-0.59l-7.99-6.22
		c-1.23-0.95-1.45-2.72-0.49-3.95c0.96-1.22,2.72-1.45,3.95-0.49l7.99,6.22C809.48,539.44,809.71,541.21,808.75,542.44z"/>
	<path class="st0" d="M899.05,515.94l6.17,4.19c1.28,0.87,1.62,2.62,0.75,3.91c-0.54,0.8-1.43,1.23-2.33,1.23
		c-0.55,0-1.1-0.16-1.58-0.49l-3.01-2.04v54.88l74.47,13.72V432.47l-74.47-13.72V515.94z M923.65,536.06
		c-0.54,0.8-1.43,1.23-2.33,1.23c-0.55,0-1.09-0.16-1.58-0.49l-8.38-5.7c-1.28-0.87-1.62-2.62-0.75-3.91
		c0.87-1.29,2.62-1.62,3.91-0.75l8.38,5.7C924.19,533.03,924.53,534.78,923.65,536.06z M946.97,542.27c1.1,1.1,1.1,2.88,0,3.98
		c-0.55,0.55-1.27,0.82-1.99,0.82s-1.44-0.27-1.99-0.82l-6.71-6.71l-6.71,6.71c-0.55,0.55-1.27,0.82-1.99,0.82s-1.44-0.27-1.99-0.82
		c-1.1-1.1-1.1-2.88,0-3.98l6.71-6.71l-6.71-6.71c-1.1-1.1-1.1-2.88,0-3.98c1.1-1.1,2.88-1.1,3.98,0l6.71,6.71l6.71-6.71
		c1.1-1.1,2.88-1.1,3.98,0c1.1,1.1,1.1,2.88,0,3.98l-6.71,6.71L946.97,542.27z M936.28,445.61c14.96,0,27.12,12.17,27.12,27.12
		c0,27.93-24.3,48.25-25.33,49.11c-0.52,0.43-1.15,0.64-1.79,0.64c-0.63,0-1.27-0.21-1.79-0.64c-1.03-0.85-25.33-21.17-25.33-49.11
		C909.16,457.77,921.33,445.61,936.28,445.61z"/>
	<path class="st2" d="M976.84,427.36l-80.09-14.75c-0.07-0.01-0.14-0.01-0.2-0.01c-0.1-0.01-0.2-0.02-0.3-0.02
		c-0.11,0-0.22,0.01-0.33,0.02c-0.06,0.01-0.12,0-0.18,0.01l-79.58,14.66l-79.58-14.66c-0.83-0.15-1.67,0.07-2.31,0.6
		c-0.64,0.53-1.01,1.33-1.01,2.16v164.59c0,1.36,0.97,2.52,2.3,2.77l80.09,14.75c0.01,0,0.01,0,0.02,0
		c0.16,0.03,0.33,0.04,0.49,0.04c0.17,0,0.33-0.02,0.49-0.04c0.01,0,0.01,0,0.02,0l79.58-14.66l79.58,14.66
		c0.17,0.03,0.34,0.05,0.51,0.05c0.65,0,1.29-0.23,1.8-0.65c0.64-0.53,1.01-1.33,1.01-2.16V430.13
		C979.14,428.77,978.17,427.61,976.84,427.36z M818.96,591.34v-41.21l6.79-2.61c1.45-0.56,2.18-2.19,1.62-3.64
		c-0.56-1.45-2.18-2.18-3.64-1.62l-4.77,1.83V432.47l74.46-13.72v96.88c-0.96,0.74-1.37,2.04-0.92,3.23
		c0.19,0.5,0.52,0.92,0.92,1.23v57.54L818.96,591.34z M738.86,418.75l74.46,13.72v113.28c-0.05,0.05-0.1,0.1-0.14,0.15
		c-0.85,1.1-0.76,2.62,0.14,3.61v41.83l-74.46-13.72V418.75z M973.52,591.34l-74.47-13.72v-54.88l3.01,2.04
		c0.48,0.33,1.03,0.49,1.58,0.49c0.9,0,1.79-0.43,2.33-1.23c0.87-1.28,0.54-3.03-0.75-3.91l-6.17-4.19v-97.18l74.47,13.72V591.34z"
		/>
	<path class="st0" d="M892.51,518.86c-0.46-1.19-0.04-2.49,0.92-3.23v-96.88l-74.46,13.72V544.1l4.77-1.83
		c1.45-0.56,3.08,0.17,3.64,1.62c0.56,1.45-0.17,3.08-1.62,3.64l-6.79,2.61v41.21l74.46-13.72v-57.54
		C893.02,519.78,892.7,519.36,892.51,518.86z M845.71,539.85l-9.46,3.63c-0.33,0.13-0.67,0.19-1.01,0.19c-1.13,0-2.2-0.69-2.63-1.81
		c-0.56-1.45,0.17-3.08,1.62-3.64l9.46-3.63c1.45-0.56,3.08,0.17,3.64,1.62C847.88,537.67,847.16,539.29,845.71,539.85z
		 M865.67,532.18l-9.46,3.63c-0.33,0.13-0.67,0.19-1.01,0.19c-1.13,0-2.2-0.69-2.63-1.81c-0.56-1.45,0.17-3.08,1.62-3.64l9.46-3.63
		c1.45-0.56,3.08,0.17,3.64,1.62C867.85,530,867.12,531.63,865.67,532.18z M885.64,524.51l-9.46,3.63
		c-0.33,0.13-0.67,0.19-1.01,0.19c-1.13,0-2.2-0.69-2.63-1.81c-0.56-1.45,0.17-3.08,1.62-3.64l9.46-3.63
		c1.45-0.56,3.08,0.17,3.64,1.62C887.81,522.33,887.09,523.96,885.64,524.51z"/>
	<path class="st1" d="M936.28,515.87c5.46-5.15,21.5-22.09,21.5-43.15c0-11.85-9.64-21.49-21.5-21.49
		c-11.85,0-21.49,9.64-21.49,21.49C914.79,493.78,930.83,510.72,936.28,515.87z M936.28,454.95c9.8,0,17.77,7.97,17.77,17.77
		c0,9.8-7.97,17.77-17.77,17.77c-9.8,0-17.77-7.97-17.77-17.77C918.51,462.93,926.48,454.95,936.28,454.95z"/>
	<path class="st2" d="M934.49,521.83c0.52,0.43,1.15,0.64,1.79,0.64c0.63,0,1.27-0.21,1.79-0.64c1.03-0.85,25.33-21.17,25.33-49.11
		c0-14.96-12.17-27.12-27.12-27.12c-14.95,0-27.12,12.17-27.12,27.12C909.16,500.66,933.46,520.98,934.49,521.83z M936.28,451.23
		c11.85,0,21.5,9.64,21.5,21.49c0,21.05-16.04,37.99-21.5,43.15c-5.46-5.15-21.49-22.09-21.49-43.15
		C914.79,460.88,924.43,451.23,936.28,451.23z"/>
	<path class="st0" d="M936.28,484.87c6.7,0,12.15-5.45,12.15-12.14c0-6.7-5.45-12.15-12.15-12.15c-6.7,0-12.14,5.45-12.14,12.15
		C924.14,479.42,929.59,484.87,936.28,484.87z"/>
	<path class="st2" d="M936.28,490.5c9.8,0,17.77-7.97,17.77-17.77c0-9.8-7.97-17.77-17.77-17.77c-9.8,0-17.77,7.97-17.77,17.77
		C918.51,482.53,926.48,490.5,936.28,490.5z M936.28,460.58c6.7,0,12.15,5.45,12.15,12.15c0,6.7-5.45,12.14-12.15,12.14
		c-6.7,0-12.14-5.45-12.14-12.14C924.14,466.03,929.59,460.58,936.28,460.58z"/>
	<path class="st2" d="M791.38,525.35l-7.99-6.22c-1.23-0.96-3-0.74-3.95,0.49c-0.96,1.23-0.73,2.99,0.49,3.95l7.99,6.22
		c0.51,0.4,1.12,0.59,1.73,0.59c0.84,0,1.67-0.37,2.22-1.08C792.83,528.07,792.61,526.31,791.38,525.35z"/>
	<path class="st2" d="M774.51,512.21l-7.99-6.22c-1.23-0.96-2.99-0.73-3.95,0.49c-0.96,1.23-0.73,3,0.49,3.95l7.99,6.22
		c0.51,0.4,1.12,0.59,1.73,0.59c0.84,0,1.67-0.37,2.22-1.08C775.95,514.94,775.73,513.17,774.51,512.21z"/>
	<path class="st2" d="M808.26,538.49l-7.99-6.22c-1.23-0.96-2.99-0.73-3.95,0.49c-0.96,1.23-0.73,3,0.49,3.95l7.99,6.22
		c0.51,0.4,1.12,0.59,1.73,0.59c0.84,0,1.67-0.37,2.22-1.08C809.71,541.21,809.48,539.44,808.26,538.49z"/>
	<path class="st2" d="M757.63,499.08l-5.57-4.34c-1.23-0.96-3-0.73-3.95,0.49c-0.96,1.23-0.73,2.99,0.49,3.95l5.57,4.34
		c0.51,0.4,1.12,0.59,1.73,0.59c0.84,0,1.67-0.37,2.22-1.09C759.08,501.8,758.86,500.03,757.63,499.08z"/>
	<path class="st2" d="M922.91,532.15l-8.38-5.7c-1.29-0.87-3.03-0.54-3.91,0.75c-0.87,1.28-0.54,3.03,0.75,3.91l8.38,5.7
		c0.48,0.33,1.03,0.49,1.58,0.49c0.9,0,1.79-0.43,2.33-1.23C924.53,534.78,924.19,533.03,922.91,532.15z"/>
	<path class="st2" d="M843.69,534.6l-9.46,3.63c-1.45,0.56-2.18,2.19-1.62,3.64c0.43,1.12,1.5,1.81,2.63,1.81
		c0.34,0,0.68-0.06,1.01-0.19l9.46-3.63c1.45-0.56,2.18-2.19,1.62-3.64C846.77,534.76,845.14,534.04,843.69,534.6z"/>
	<path class="st2" d="M883.62,519.26l-9.46,3.63c-1.45,0.56-2.18,2.19-1.62,3.64c0.43,1.12,1.5,1.81,2.63,1.81
		c0.34,0,0.68-0.06,1.01-0.19l9.46-3.63c1.45-0.56,2.18-2.19,1.62-3.64C886.7,519.43,885.07,518.7,883.62,519.26z"/>
	<path class="st2" d="M863.65,526.93l-9.46,3.63c-1.45,0.56-2.18,2.19-1.62,3.64c0.43,1.12,1.5,1.81,2.63,1.81
		c0.34,0,0.68-0.06,1.01-0.19l9.46-3.63c1.45-0.56,2.18-2.19,1.62-3.64C866.73,527.1,865.1,526.37,863.65,526.93z"/>
	<path class="st2" d="M946.97,524.88c-1.1-1.1-2.88-1.1-3.98,0l-6.71,6.71l-6.71-6.71c-1.1-1.1-2.88-1.1-3.98,0
		c-1.1,1.1-1.1,2.88,0,3.98l6.71,6.71l-6.71,6.71c-1.1,1.1-1.1,2.88,0,3.98c0.55,0.55,1.27,0.82,1.99,0.82s1.44-0.27,1.99-0.82
		l6.71-6.71l6.71,6.71c0.55,0.55,1.27,0.82,1.99,0.82s1.44-0.27,1.99-0.82c1.1-1.1,1.1-2.88,0-3.98l-6.71-6.71l6.71-6.71
		C948.07,527.76,948.07,525.98,946.97,524.88z"/>
</g>
<g>
	<path class="st1" d="M660.15,809.93c0-64.69-52.63-117.33-117.33-117.33S425.5,745.24,425.5,809.93
		c0,64.69,52.63,117.33,117.33,117.33S660.15,874.63,660.15,809.93z M582.32,905.26c-0.02,0.01-0.03,0.01-0.05,0.01
		c-12.16,5.05-25.48,7.84-39.44,7.84c-13.96,0-27.28-2.79-39.44-7.84c-0.02-0.01-0.03-0.01-0.05-0.01
		c-0.01-0.01-0.03-0.02-0.04-0.02c-12.41-5.17-23.6-12.68-33.01-22c-0.15-0.1-0.29-0.21-0.42-0.35c-0.13-0.13-0.25-0.28-0.35-0.42
		c-9.32-9.42-16.84-20.61-22-33.02c0-0.01-0.01-0.02-0.02-0.03c-0.01-0.02-0.01-0.03-0.02-0.05c-5.05-12.16-7.84-25.47-7.84-39.43
		c0-13.96,2.79-27.28,7.84-39.44c0.01-0.02,0.01-0.03,0.02-0.05c0.01-0.02,0.02-0.03,0.02-0.04c5.17-12.41,12.68-23.6,22-33.01
		c0.1-0.15,0.21-0.29,0.35-0.42c0.13-0.13,0.27-0.25,0.42-0.35c9.41-9.31,20.6-16.83,33.01-22c0.01-0.01,0.03-0.02,0.04-0.02
		c0.02-0.01,0.03-0.01,0.05-0.01c12.16-5.05,25.48-7.84,39.44-7.84c13.96,0,27.28,2.79,39.44,7.84c0.02,0.01,0.03,0.01,0.05,0.01
		c0.01,0.01,0.03,0.01,0.04,0.02c12.41,5.17,23.6,12.68,33.01,22c0.15,0.1,0.29,0.21,0.42,0.35c0.13,0.13,0.25,0.27,0.35,0.42
		c9.31,9.41,16.83,20.6,22,33.01c0.01,0.02,0.02,0.03,0.02,0.04c0.01,0.02,0.01,0.03,0.02,0.05c5.05,12.16,7.84,25.48,7.84,39.44
		c0,13.96-2.79,27.28-7.84,39.43c-0.01,0.02-0.01,0.03-0.02,0.05c0,0.01-0.01,0.02-0.02,0.03c-5.17,12.41-12.69,23.61-22,33.02
		c-0.1,0.15-0.21,0.29-0.35,0.42c-0.13,0.13-0.28,0.25-0.42,0.35c-9.41,9.31-20.6,16.83-33.01,22
		C582.34,905.25,582.33,905.26,582.32,905.26z"/>
	<path class="st2" d="M542.83,686.98c-67.8,0-122.95,55.16-122.95,122.95s55.16,122.95,122.95,122.95
		c67.8,0,122.95-55.16,122.95-122.95S610.63,686.98,542.83,686.98z M425.5,809.93c0-64.69,52.63-117.33,117.33-117.33
		s117.33,52.63,117.33,117.33c0,64.69-52.63,117.33-117.33,117.33S425.5,874.63,425.5,809.93z"/>
	<path class="st0" d="M615.78,843.2c-1.44-0.59-2.12-2.24-1.52-3.68c0.59-1.43,2.24-2.12,3.68-1.52l16.06,6.65
		c3.81-9.96,6.03-20.7,6.35-31.9h-17.4c-1.55,0-2.81-1.26-2.81-2.81c0-1.55,1.26-2.81,2.81-2.81h17.4
		c-0.32-11.21-2.54-21.94-6.35-31.9l-16.06,6.65c-0.35,0.15-0.72,0.22-1.08,0.22c-1.1,0-2.15-0.65-2.6-1.74
		c-0.59-1.44,0.09-3.08,1.52-3.68l16.06-6.65c-4.51-10.01-10.66-19.13-18.1-27.01l-12.27,12.27c-0.55,0.55-1.27,0.82-1.99,0.82
		s-1.44-0.27-1.99-0.82c-1.1-1.1-1.1-2.88,0-3.98l12.27-12.27c-7.88-7.44-17-13.59-27.01-18.1l-6.65,16.06
		c-0.45,1.08-1.5,1.74-2.6,1.74c-0.36,0-0.72-0.07-1.08-0.22c-1.44-0.59-2.12-2.24-1.52-3.68l6.65-16.06
		c-9.96-3.81-20.7-6.03-31.9-6.35v17.4c0,1.55-1.26,2.81-2.81,2.81c-1.55,0-2.81-1.26-2.81-2.81v-17.4
		c-11.21,0.32-21.94,2.54-31.9,6.35l6.65,16.06c0.59,1.44-0.09,3.08-1.52,3.68c-0.35,0.15-0.72,0.22-1.08,0.22
		c-1.1,0-2.15-0.65-2.6-1.74l-6.65-16.06c-10.01,4.51-19.13,10.66-27.01,18.1l12.27,12.27c1.1,1.1,1.1,2.88,0,3.98
		c-0.55,0.55-1.27,0.82-1.99,0.82c-0.72,0-1.44-0.27-1.99-0.82l-12.27-12.27c-7.45,7.88-13.59,17-18.1,27.01l16.06,6.65
		c1.44,0.59,2.12,2.24,1.52,3.68c-0.45,1.08-1.5,1.74-2.6,1.74c-0.36,0-0.72-0.07-1.08-0.22l-16.06-6.65
		c-3.81,9.96-6.03,20.7-6.35,31.9h17.4c1.55,0,2.81,1.26,2.81,2.81c0,1.55-1.26,2.81-2.81,2.81h-17.4
		c0.32,11.21,2.54,21.94,6.35,31.9l16.06-6.65c1.43-0.59,3.08,0.09,3.68,1.52c0.59,1.44-0.09,3.08-1.52,3.68l-16.06,6.65
		c4.51,10.01,10.66,19.13,18.1,27.01l12.27-12.27c1.1-1.1,2.88-1.1,3.98,0c1.1,1.1,1.1,2.88,0,3.98l-12.27,12.27
		c7.88,7.44,17,13.59,27.01,18.1l6.65-16.06c0.59-1.43,2.24-2.12,3.68-1.52c1.44,0.59,2.12,2.24,1.52,3.68l-6.65,16.06
		c9.96,3.81,20.7,6.03,31.9,6.35v-17.4c0-1.55,1.26-2.81,2.81-2.81c1.55,0,2.81,1.26,2.81,2.81v17.4
		c11.21-0.32,21.94-2.54,31.9-6.35l-6.65-16.06c-0.59-1.44,0.09-3.08,1.52-3.68c1.43-0.59,3.08,0.09,3.68,1.52l6.65,16.06
		c10.01-4.51,19.13-10.66,27.01-18.1l-12.27-12.27c-1.1-1.1-1.1-2.88,0-3.98c1.1-1.1,2.88-1.1,3.98,0l12.27,12.27
		c7.45-7.88,13.59-17,18.1-27.01L615.78,843.2z M593.03,857.17c-1.31,2.38-3.78,3.86-6.43,3.86c-1.36,0-2.71-0.4-3.91-1.16
		l-54.53-34.38c-0.05-0.03-0.09-0.08-0.14-0.11c-0.12-0.09-0.24-0.17-0.35-0.28c-0.09-0.09-0.17-0.2-0.25-0.31
		c-0.05-0.06-0.1-0.11-0.14-0.18l-34.38-54.54c-1.45-2.29-1.54-5.06-0.26-7.39c1.31-2.38,3.78-3.86,6.43-3.86
		c1.36,0,2.71,0.4,3.91,1.16l54.53,34.38c0.05,0.03,0.09,0.08,0.14,0.11c0.12,0.09,0.24,0.17,0.35,0.28
		c0.09,0.09,0.17,0.2,0.25,0.31c0.05,0.06,0.1,0.11,0.14,0.18l34.38,54.54C594.22,852.08,594.31,854.84,593.03,857.17z"/>
	<path class="st2" d="M615.79,882.9c0.13-0.13,0.25-0.27,0.35-0.42c9.32-9.42,16.84-20.61,22-33.02c0-0.01,0.01-0.02,0.02-0.03
		c0.01-0.02,0.01-0.03,0.02-0.05c5.05-12.16,7.84-25.47,7.84-39.43c0-13.96-2.79-27.28-7.84-39.44c-0.01-0.02-0.01-0.03-0.02-0.05
		c-0.01-0.02-0.02-0.03-0.02-0.04c-5.17-12.41-12.68-23.6-22-33.01c-0.1-0.15-0.21-0.29-0.35-0.42c-0.13-0.13-0.27-0.25-0.42-0.35
		c-9.41-9.31-20.6-16.83-33.01-22c-0.01-0.01-0.03-0.02-0.04-0.02c-0.02-0.01-0.03-0.01-0.05-0.01
		c-12.16-5.05-25.48-7.84-39.44-7.84c-13.96,0-27.28,2.79-39.44,7.84c-0.02,0.01-0.03,0.01-0.05,0.01
		c-0.01,0.01-0.03,0.02-0.04,0.02c-12.41,5.17-23.6,12.68-33.01,22c-0.15,0.1-0.29,0.21-0.42,0.35c-0.13,0.13-0.25,0.27-0.35,0.42
		c-9.31,9.41-16.83,20.6-22,33.01c-0.01,0.01-0.02,0.03-0.02,0.04c-0.01,0.02-0.01,0.03-0.02,0.05
		c-5.05,12.16-7.84,25.48-7.84,39.44c0,13.96,2.79,27.28,7.84,39.43c0.01,0.02,0.01,0.03,0.02,0.05c0,0.01,0.01,0.02,0.02,0.03
		c5.17,12.41,12.69,23.61,22,33.02c0.1,0.15,0.21,0.29,0.35,0.42c0.13,0.13,0.27,0.25,0.42,0.35c9.41,9.31,20.6,16.83,33.01,22
		c0.01,0.01,0.03,0.02,0.04,0.02c0.02,0.01,0.03,0.01,0.05,0.01c12.16,5.05,25.48,7.84,39.44,7.84c13.96,0,27.28-2.79,39.44-7.84
		c0.02-0.01,0.03-0.01,0.05-0.01c0.01-0.01,0.03-0.01,0.04-0.02c12.41-5.17,23.6-12.68,33.01-22
		C615.52,883.14,615.66,883.03,615.79,882.9z M601.47,864.6c-1.1-1.1-2.88-1.1-3.98,0c-1.1,1.1-1.1,2.88,0,3.98l12.27,12.27
		c-7.88,7.45-17,13.59-27.01,18.1l-6.65-16.06c-0.59-1.44-2.24-2.12-3.68-1.52c-1.44,0.59-2.12,2.24-1.52,3.68l6.65,16.06
		c-9.96,3.81-20.7,6.03-31.9,6.35v-17.4c0-1.55-1.26-2.81-2.81-2.81c-1.55,0-2.81,1.26-2.81,2.81v17.4
		c-11.21-0.32-21.94-2.54-31.9-6.35l6.65-16.06c0.59-1.44-0.09-3.08-1.52-3.68c-1.43-0.59-3.08,0.09-3.68,1.52l-6.65,16.06
		c-10.01-4.51-19.13-10.66-27.01-18.1l12.27-12.27c1.1-1.1,1.1-2.88,0-3.98c-1.1-1.1-2.88-1.1-3.98,0l-12.27,12.27
		c-7.45-7.88-13.59-17-18.1-27.01l16.06-6.65c1.44-0.59,2.12-2.24,1.52-3.68c-0.59-1.44-2.24-2.12-3.68-1.52l-16.06,6.65
		c-3.81-9.96-6.03-20.7-6.35-31.9h17.4c1.55,0,2.81-1.26,2.81-2.81c0-1.55-1.26-2.81-2.81-2.81h-17.4
		c0.32-11.21,2.54-21.94,6.35-31.9l16.06,6.65c0.35,0.15,0.72,0.22,1.08,0.22c1.1,0,2.15-0.66,2.6-1.74
		c0.59-1.44-0.09-3.08-1.52-3.68l-16.06-6.65c4.51-10.01,10.66-19.13,18.1-27.01l12.27,12.27c0.55,0.55,1.27,0.82,1.99,0.82
		c0.72,0,1.44-0.27,1.99-0.82c1.1-1.1,1.1-2.88,0-3.98l-12.27-12.27c7.88-7.44,17-13.59,27.01-18.1l6.65,16.06
		c0.45,1.08,1.5,1.74,2.6,1.74c0.36,0,0.72-0.07,1.08-0.22c1.44-0.59,2.12-2.24,1.52-3.68l-6.65-16.06
		c9.96-3.81,20.7-6.03,31.9-6.35v17.4c0,1.55,1.26,2.81,2.81,2.81c1.55,0,2.81-1.26,2.81-2.81v-17.4
		c11.21,0.32,21.94,2.54,31.9,6.35l-6.65,16.06c-0.59,1.44,0.09,3.08,1.52,3.68c0.35,0.15,0.72,0.22,1.08,0.22
		c1.1,0,2.15-0.66,2.6-1.74l6.65-16.06c10.01,4.51,19.13,10.66,27.01,18.1l-12.27,12.27c-1.1,1.1-1.1,2.88,0,3.98
		c0.55,0.55,1.27,0.82,1.99,0.82s1.44-0.27,1.99-0.82l12.27-12.27c7.45,7.88,13.6,17,18.1,27.01l-16.06,6.65
		c-1.44,0.59-2.12,2.24-1.52,3.68c0.45,1.08,1.5,1.74,2.6,1.74c0.36,0,0.72-0.07,1.08-0.22l16.06-6.65
		c3.81,9.96,6.03,20.7,6.35,31.9h-17.4c-1.55,0-2.81,1.26-2.81,2.81c0,1.55,1.26,2.81,2.81,2.81h17.4
		c-0.32,11.21-2.54,21.94-6.35,31.9L617.93,838c-1.44-0.59-3.08,0.09-3.68,1.52c-0.59,1.44,0.09,3.08,1.52,3.68l16.06,6.65
		c-4.51,10.01-10.66,19.13-18.1,27.01L601.47,864.6z"/>
	<path class="st1" d="M530.15,818.64l21.38-21.38l-51.55-32.5c-0.31-0.19-0.61-0.29-0.91-0.29c-0.58,0-1.19,0.38-1.5,0.95
		c-0.3,0.54-0.27,1.1,0.09,1.67L530.15,818.64z"/>
	<path class="st0" d="M555.51,801.23l-21.38,21.38l51.55,32.5c0.91,0.58,1.94,0.2,2.42-0.66c0.3-0.54,0.27-1.1-0.09-1.67
		L555.51,801.23z"/>
	<path class="st2" d="M558.39,795.25c-0.04-0.07-0.1-0.12-0.14-0.18c-0.08-0.11-0.15-0.22-0.25-0.31c-0.11-0.11-0.23-0.19-0.35-0.28
		c-0.05-0.04-0.09-0.08-0.14-0.11l-54.53-34.38c-1.2-0.76-2.56-1.16-3.91-1.16c-2.65,0-5.12,1.48-6.43,3.86
		c-1.29,2.33-1.19,5.09,0.26,7.39l34.38,54.54c0.04,0.07,0.1,0.12,0.14,0.18c0.08,0.11,0.15,0.22,0.25,0.31
		c0.11,0.11,0.23,0.19,0.35,0.28c0.05,0.04,0.09,0.08,0.14,0.11l54.53,34.38c1.2,0.76,2.56,1.16,3.91,1.16
		c2.65,0,5.12-1.48,6.43-3.86c1.29-2.33,1.19-5.09-0.26-7.39L558.39,795.25z M588.1,854.45c-0.48,0.86-1.51,1.24-2.42,0.66
		l-51.55-32.5l21.38-21.38l32.5,51.55C588.37,853.35,588.4,853.91,588.1,854.45z M497.56,765.41c0.31-0.57,0.92-0.95,1.5-0.95
		c0.3,0,0.61,0.1,0.91,0.29l51.55,32.5l-21.38,21.38l-32.5-51.55C497.29,766.52,497.26,765.95,497.56,765.41z"/>
</g>
<g>
	<path class="st0" d="M814.04,837.7l-10.67-10.67c-0.64-0.64-1.19-1.33-1.69-2.04c-0.34-0.14-0.66-0.34-0.94-0.62l-39.88-39.88
		c-1.67-1.67-3.89-2.59-6.25-2.59c-2.36,0-4.58,0.92-6.25,2.59c-3.45,3.45-3.45,9.06,0,12.5l9.57,9.57l35.11,35.11
		c1.1,1.1,1.1,2.88,0,3.98c-0.55,0.55-1.27,0.82-1.99,0.82s-1.44-0.27-1.99-0.82l-35.11-35.11c-3.45-3.45-9.06-3.45-12.5,0
		c-3.45,3.45-3.45,9.06,0,12.5l16.51,16.51l18.6,18.6l8.51,8.51L814.04,837.7z"/>
	<path class="st0" d="M846.59,879.69l-2.33-2.33c-0.53-0.53-0.82-1.24-0.82-1.99c0-0.75,0.3-1.46,0.82-1.99l2.73-2.73l-2.2-2.2
		l-28.97,28.97l6.52,6.52L846.59,879.69z"/>
	<path class="st0" d="M781.33,764.02l24.85,24.85c0.39-3.06,1.75-6.02,4.1-8.37c2.36-2.36,5.33-3.71,8.4-4.1l-1.22-1.22
		c-0.13-0.13-0.25-0.28-0.37-0.41l-23.26-23.26c-3.45-3.45-9.06-3.45-12.5,0C777.88,754.96,777.88,760.57,781.33,764.02z"/>
	<path class="st0" d="M755.55,771.21l43.72,43.72c0.39-3.06,1.75-6.02,4.1-8.37c2.36-2.36,5.33-3.71,8.4-4.1l-1.49-1.49
		c-0.13-0.13-0.25-0.28-0.37-0.41l-41.85-41.85c-3.45-3.45-9.06-3.45-12.5,0C752.1,762.15,752.1,767.76,755.55,771.21z"/>
	<polygon class="st1" points="840.81,864.47 838.48,862.13 818.02,841.68 784.33,875.37 807.12,898.15 	"/>
	
		<rect x="833.3" y="884.4" transform="matrix(0.7071 0.7071 -0.7071 0.7071 886.6761 -330.9272)" class="st1" width="19.04" height="40.97"/>
	<path class="st0" d="M950.19,841.98l-4.28-4.28c-7.06-7.06-10.95-16.44-10.95-26.43v-35.49c0-7.26-5.67-13.27-12.63-13.39l-0.24,0
		c-7.1,0-12.88,5.78-12.88,12.88v18.94c0,0.17-0.02,0.33-0.05,0.49c-0.01,0.05-0.02,0.1-0.03,0.15c-0.03,0.11-0.06,0.23-0.1,0.33
		c-0.02,0.05-0.04,0.1-0.06,0.15c-0.06,0.13-0.12,0.26-0.2,0.38c-0.01,0.02-0.02,0.04-0.03,0.06c-0.09,0.14-0.2,0.27-0.32,0.39
		c-0.01,0.01-0.02,0.03-0.03,0.04c-0.02,0.02-0.04,0.03-0.06,0.05c-0.1,0.09-0.2,0.17-0.31,0.25c-0.04,0.03-0.07,0.06-0.11,0.08
		c-0.14,0.09-0.28,0.16-0.43,0.23c0,0,0,0-0.01,0c-0.23,0.1-0.47,0.15-0.72,0.18c-0.06,0.01-0.12,0.01-0.18,0.02
		c-0.24,0.01-0.48,0.01-0.72-0.04c-0.01,0-0.02-0.01-0.03-0.01c-0.23-0.05-0.44-0.13-0.65-0.23c-0.05-0.03-0.11-0.05-0.16-0.08
		c-0.21-0.12-0.42-0.26-0.6-0.44l-0.58-0.58l0,0l-44.1-44.1c-1.67-1.67-3.89-2.59-6.25-2.59c-2.36,0-4.58,0.92-6.25,2.59
		c-3.45,3.45-3.45,9.06,0,12.5l39.88,39.88c1.1,1.1,1.1,2.88,0,3.98c-0.55,0.55-1.27,0.82-1.99,0.82s-1.44-0.27-1.99-0.82
		L843.24,768l-9.3-9.3c-3.45-3.45-9.06-3.45-12.5,0c-3.45,3.45-3.45,9.06,0,12.5l9.3,9.3l39.88,39.88c1.1,1.1,1.1,2.88,0,3.98
		c-0.55,0.55-1.27,0.82-1.99,0.82c-0.72,0-1.44-0.27-1.99-0.82l-39.88-39.88c-3.45-3.45-9.06-3.45-12.5,0
		c-3.45,3.45-3.45,9.06,0,12.5l9.57,9.57c0,0,0.01,0.01,0.01,0.01l35.11,35.11c1.1,1.1,1.1,2.88,0,3.98
		c-0.55,0.55-1.27,0.82-1.99,0.82s-1.44-0.27-1.99-0.82l0,0l0,0l-35.11-35.11c-3.45-3.45-9.06-3.45-12.5,0
		c-3.45,3.45-3.45,9.06,0,12.5l16.51,16.51l18.6,18.6l8.51,8.51l34.77-34.77c2.66-2.66,6.19-4.12,9.96-4.12s7.3,1.46,9.96,4.12
		l10.83,10.83c2.66,2.66,4.12,6.2,4.12,9.96c0,3.76-1.46,7.3-4.12,9.96l-34.77,34.77l6.52,6.52L950.19,841.98z"/>
	<path class="st1" d="M873.01,898.15l39.49-39.49c1.6-1.6,2.48-3.72,2.48-5.98c0-2.26-0.88-4.38-2.48-5.98l-10.83-10.83
		c-1.6-1.6-3.72-2.48-5.98-2.48c-2.26,0-4.38,0.88-5.98,2.48l-39.49,39.49L873.01,898.15z"/>
	
		<rect x="920.4" y="833.18" transform="matrix(0.7071 0.7071 -0.7071 0.7071 897.2141 -398.7342)" class="st1" width="19.04" height="100.97"/>
	<path class="st2" d="M978.32,852.71l-17.44-17.44c-1.1-1.1-2.88-1.1-3.98,0l-2.73,2.73l-4.28-4.28c-6-6-9.3-13.97-9.3-22.45v-35.49
		c0-10.31-8.15-18.84-18.16-19.02l-0.35,0c-10.2,0-18.5,8.3-18.5,18.5v12.15l-2.62-2.62l-37.26-37.25c-5.64-5.64-14.82-5.64-20.46,0
		c-2.35,2.36-3.71,5.33-4.1,8.4l-1.22-1.22c-5.64-5.64-14.82-5.64-20.46,0c-2.35,2.35-3.7,5.31-4.1,8.37l-15.55-15.55
		c-5.64-5.64-14.82-5.64-20.46,0c-2.36,2.36-3.71,5.33-4.1,8.4l-1.22-1.22c-5.64-5.64-14.82-5.64-20.46,0
		c-5.64,5.64-5.64,14.82,0,20.46l1.21,1.21c-3.17,0.4-6.1,1.82-8.39,4.11c-5.64,5.64-5.64,14.82,0,20.46l1.49,1.49
		c-3.17,0.4-6.1,1.82-8.39,4.11c-5.64,5.64-5.64,14.82,0,20.46l14.52,14.52l20.59,20.59l8.51,8.51l-2.73,2.73
		c-0.53,0.53-0.82,1.24-0.82,1.99c0,0.75,0.3,1.46,0.82,1.99l26.77,26.77c0.55,0.55,1.27,0.82,1.99,0.82s1.44-0.27,1.99-0.82
		l2.73-2.73l6.52,6.52l-2.73,2.73c-1.1,1.1-1.1,2.88,0,3.98l17.44,17.44c0.53,0.53,1.24,0.82,1.99,0.82s1.46-0.3,1.99-0.82
		l30.96-30.96l3.02,3.02c0.55,0.55,1.27,0.82,1.99,0.82s1.44-0.27,1.99-0.82l2.73-2.73l6.52,6.52l-2.73,2.73
		c-1.1,1.1-1.1,2.88,0,3.98l17.44,17.44c0.53,0.53,1.24,0.82,1.99,0.82s1.46-0.3,1.99-0.82l75.38-75.37
		c0.53-0.53,0.82-1.24,0.82-1.99C979.14,853.95,978.85,853.24,978.32,852.71z M887.49,912.63l71.4-71.4l13.46,13.46l-71.4,71.4
		L887.49,912.63z M850.57,883.67l13.46,13.46l-28.97,28.97l-13.46-13.46L850.57,883.67z M784.33,875.37l33.69-33.69l20.46,20.46
		l2.33,2.33l-33.69,33.69L784.33,875.37z M776.56,858.16l-18.6-18.6l-16.51-16.51c-3.45-3.45-3.45-9.06,0-12.5
		c3.45-3.45,9.06-3.45,12.5,0l35.11,35.11c0.55,0.55,1.27,0.82,1.99,0.82s1.44-0.27,1.99-0.82c1.1-1.1,1.1-2.88,0-3.98l-35.11-35.11
		l-9.57-9.57c-3.45-3.45-3.45-9.06,0-12.5c1.67-1.67,3.89-2.59,6.25-2.59c2.36,0,4.58,0.92,6.25,2.59l39.88,39.88
		c0.28,0.28,0.6,0.48,0.94,0.62c0.49,0.72,1.05,1.41,1.69,2.04l10.67,10.67l-28.97,28.97L776.56,858.16z M768.05,758.7l41.85,41.85
		c0.13,0.14,0.24,0.28,0.37,0.41l1.49,1.49c-3.07,0.39-6.05,1.75-8.4,4.1c-2.35,2.35-3.7,5.31-4.1,8.37l-43.72-43.72
		c-3.45-3.45-3.45-9.06,0-12.5C759,755.25,764.6,755.25,768.05,758.7z M793.83,751.52l23.26,23.26c0.13,0.14,0.24,0.28,0.37,0.41
		l1.22,1.22c-3.07,0.39-6.05,1.75-8.4,4.1c-2.35,2.35-3.7,5.31-4.1,8.37l-24.85-24.85c-3.45-3.45-3.45-9.06,0-12.5
		C784.78,748.07,790.39,748.07,793.83,751.52z M844.79,868.44l2.2,2.2l-2.73,2.73c-0.53,0.53-0.82,1.24-0.82,1.99
		c0,0.75,0.3,1.46,0.82,1.99l2.33,2.33l-24.25,24.25l-6.52-6.52L844.79,868.44z M850.23,875.37l39.49-39.49
		c1.6-1.6,3.72-2.48,5.98-2.48c2.26,0,4.38,0.88,5.98,2.48l10.83,10.83c1.6,1.6,2.48,3.72,2.48,5.98c0,2.26-0.88,4.38-2.48,5.98
		l-39.49,39.49L850.23,875.37z M916.49,862.64c2.66-2.66,4.12-6.2,4.12-9.96c0-3.76-1.46-7.3-4.12-9.96l-10.83-10.83
		c-2.66-2.66-6.2-4.12-9.96-4.12s-7.3,1.46-9.96,4.12l-34.77,34.77l-8.51-8.51l-18.6-18.6l-16.51-16.51c-3.45-3.45-3.45-9.06,0-12.5
		c3.45-3.45,9.06-3.45,12.5,0l35.11,35.11l0,0l0,0c0.55,0.55,1.27,0.82,1.99,0.82s1.44-0.27,1.99-0.82c1.1-1.1,1.1-2.88,0-3.98
		l-35.11-35.11c0,0-0.01-0.01-0.01-0.01l-9.57-9.57c-3.45-3.45-3.45-9.06,0-12.5c3.45-3.45,9.06-3.45,12.5,0l39.88,39.88
		c0.55,0.55,1.27,0.82,1.99,0.82c0.72,0,1.44-0.27,1.99-0.82c1.1-1.1,1.1-2.88,0-3.98l-39.88-39.88l-9.3-9.3
		c-3.45-3.45-3.45-9.06,0-12.5c3.45-3.45,9.06-3.45,12.5,0l9.3,9.3l39.88,39.88c0.55,0.55,1.27,0.82,1.99,0.82s1.44-0.27,1.99-0.82
		c1.1-1.1,1.1-2.88,0-3.98l-39.88-39.88c-3.45-3.45-3.45-9.06,0-12.5c1.67-1.67,3.89-2.59,6.25-2.59c2.36,0,4.58,0.92,6.25,2.59
		l44.1,44.1l0,0l0.58,0.58c0.18,0.18,0.39,0.32,0.6,0.44c0.05,0.03,0.11,0.06,0.16,0.08c0.21,0.1,0.43,0.19,0.65,0.23
		c0.01,0,0.02,0.01,0.03,0.01c0.24,0.05,0.48,0.05,0.72,0.04c0.06,0,0.12-0.01,0.18-0.02c0.24-0.03,0.49-0.08,0.72-0.18
		c0,0,0,0,0.01,0c0.15-0.06,0.29-0.14,0.43-0.23c0.04-0.02,0.07-0.05,0.11-0.08c0.11-0.08,0.21-0.16,0.31-0.25
		c0.02-0.02,0.04-0.03,0.06-0.05c0.01-0.01,0.02-0.03,0.03-0.04c0.12-0.12,0.23-0.25,0.32-0.39c0.01-0.02,0.02-0.04,0.03-0.06
		c0.08-0.12,0.14-0.25,0.2-0.38c0.02-0.05,0.04-0.1,0.06-0.15c0.04-0.11,0.07-0.22,0.1-0.33c0.01-0.05,0.02-0.1,0.03-0.15
		c0.03-0.16,0.05-0.32,0.05-0.49v-18.94c0-7.1,5.78-12.88,12.88-12.88l0.24,0c6.97,0.13,12.63,6.14,12.63,13.39v35.49
		c0,9.98,3.89,19.37,10.95,26.43l4.28,4.28l-61.95,61.95l-6.52-6.52L916.49,862.64z"/>
</g>
<g>
	<path class="st1" d="M1256.05,813.32v95.95c0,0.23-0.03,0.46-0.04,0.7h8.46c5.55,0,10.07-4.52,10.07-10.07v-67.61
		C1274.55,821.98,1266.29,813.58,1256.05,813.32z"/>
	<path class="st1" d="M1081.05,909.26v-95.95c-10.24,0.27-18.5,8.66-18.5,18.97v67.61c0,5.55,4.52,10.07,10.07,10.07h8.46
		C1081.08,909.73,1081.05,909.5,1081.05,909.26z"/>
	<path class="st2" d="M1256.05,807.68v-76.21c0-10.99-7.56-20.23-17.74-22.85v-18.82c0-1.55-1.26-2.81-2.81-2.81h-34.06
		c-1.55,0-2.81,1.26-2.81,2.81v18.05h-60.13v-18.05c0-1.55-1.26-2.81-2.81-2.81h-34.06c-1.55,0-2.81,1.26-2.81,2.81v18.82
		c-10.18,2.62-17.74,11.86-17.74,22.85v76.21c-13.35,0.27-24.12,11.2-24.12,24.61v67.61c0,8.65,7.04,15.69,15.69,15.69h9.31
		c2.78,9.96,11.91,17.3,22.74,17.3h17.76h92.24h17.76c10.83,0,19.96-7.34,22.74-17.3h9.31c8.65,0,15.69-7.04,15.69-15.69v-67.61
		C1280.17,818.88,1269.4,807.94,1256.05,807.68z M1274.55,899.89c0,5.55-4.52,10.07-10.07,10.07h-8.46c0.01-0.23,0.04-0.46,0.04-0.7
		v-95.95c10.24,0.27,18.5,8.66,18.5,18.97V899.89z M1224.74,865.49h-112.37v-15.9c0-10.47,8.52-19,18.99-19h74.38
		c10.47,0,19,8.52,19,19V865.49z M1112.37,917.19v-46.08h112.37v46.08c0,5.55-4.52,10.07-10.07,10.07h-92.24
		C1116.88,927.26,1112.37,922.74,1112.37,917.19z M1226.7,927.26c2.29-2.73,3.67-6.24,3.67-10.07V868.3v-18.72
		c0-13.58-11.05-24.62-24.62-24.62h-74.38c-13.58,0-24.62,11.05-24.62,24.62v18.72v48.89c0,3.83,1.38,7.34,3.67,10.07h-5.73
		c-9.92,0-18-8.07-18-18v-177.8c0-9.92,8.07-17.99,18-17.99h2.06v55.82c0,12.27,9.6,22.31,21.69,23.06v18.13
		c0,1.55,1.26,2.81,2.81,2.81h18.99c1.55,0,2.81-1.26,2.81-2.81v-18.05h31.03v18.05c0,1.55,1.26,2.81,2.81,2.81h18.99
		c1.55,0,2.81-1.26,2.81-2.81v-18.13c12.08-0.75,21.69-10.79,21.69-23.06v-55.82h2.06c9.92,0,18,8.07,18,17.99v177.8
		c0,9.92-8.07,18-18,18H1226.7z M1062.56,899.89v-67.61c0-10.3,8.25-18.7,18.5-18.97v95.95c0,0.23,0.03,0.46,0.04,0.7h-8.46
		C1067.07,909.96,1062.56,905.45,1062.56,899.89z M1132.86,692.61v15.24h-23.31h-4.88c-0.09,0-0.17,0.01-0.25,0.01v-15.25H1132.86z
		 M1232.68,692.61v15.25c-0.09,0-0.17-0.01-0.25-0.01h-4.87h-23.31v-15.24H1232.68z M1134.05,771.56h13.36v36.1h-13.36V771.56z
		 M1189.69,771.56h13.36v36.1h-13.36V771.56z M1224.74,713.47v55.82c0,9.16-7.08,16.69-16.06,17.43v-17.98
		c0-1.55-1.26-2.81-2.81-2.81h-18.99c-1.55,0-2.81,1.26-2.81,2.81v18.05h-31.03v-18.05c0-1.55-1.26-2.81-2.81-2.81h-18.99
		c-1.55,0-2.81,1.26-2.81,2.81v17.98c-8.98-0.74-16.06-8.27-16.06-17.43v-55.82H1224.74z"/>
	<path class="st0" d="M1104.68,707.85h4.88h23.31v-15.24h-28.43v15.25C1104.51,707.86,1104.59,707.85,1104.68,707.85z"/>
	<path class="st0" d="M1227.55,707.85h4.87c0.09,0,0.17,0.01,0.25,0.01v-15.25h-28.43v15.24H1227.55z"/>
	<path class="st0" d="M1250.42,909.26v-177.8c0-9.92-8.07-17.99-18-17.99h-2.06v55.82c0,12.27-9.61,22.31-21.69,23.06v18.13
		c0,1.55-1.26,2.81-2.81,2.81h-18.99c-1.55,0-2.81-1.26-2.81-2.81v-18.05h-31.03v18.05c0,1.55-1.26,2.81-2.81,2.81h-18.99
		c-1.55,0-2.81-1.26-2.81-2.81v-18.13c-12.08-0.75-21.69-10.79-21.69-23.06v-55.82h-2.06c-9.92,0-18,8.07-18,17.99v177.8
		c0,9.92,8.07,18,18,18h5.73c-2.29-2.73-3.67-6.24-3.67-10.07V868.3v-18.72c0-13.58,11.05-24.62,24.62-24.62h74.38
		c13.58,0,24.62,11.05,24.62,24.62v18.72v48.89c0,3.83-1.38,7.34-3.67,10.07h5.73C1242.35,927.26,1250.42,919.19,1250.42,909.26z"/>
	<path class="st1" d="M1112.37,713.47v55.82c0,9.16,7.08,16.69,16.06,17.43v-17.98c0-1.55,1.26-2.81,2.81-2.81h18.99
		c1.55,0,2.81,1.26,2.81,2.81v18.05h31.03v-18.05c0-1.55,1.26-2.81,2.81-2.81h18.99c1.55,0,2.81,1.26,2.81,2.81v17.98
		c8.98-0.74,16.06-8.27,16.06-17.43v-55.82H1112.37z"/>
	<path class="st0" d="M1205.74,830.59h-74.38c-10.47,0-18.99,8.52-18.99,19v15.9h112.37v-15.9
		C1224.74,839.11,1216.22,830.59,1205.74,830.59z"/>
	<path class="st0" d="M1224.74,917.19v-46.08h-112.37v46.08c0,5.55,4.52,10.07,10.07,10.07h92.24
		C1220.22,927.26,1224.74,922.74,1224.74,917.19z"/>
	<rect x="1134.05" y="771.56" class="st0" width="13.36" height="36.1"/>
	<rect x="1189.69" y="771.56" class="st0" width="13.36" height="36.1"/>
</g>
</svg>
